<?xml version="1.0" encoding="UTF-8" standalone="no"?>
<!-- Created with Inkscape (http://www.inkscape.org/) -->

<svg
   xmlns:dc="http://purl.org/dc/elements/1.1/"
   xmlns:cc="http://creativecommons.org/ns#"
   xmlns:rdf="http://www.w3.org/1999/02/22-rdf-syntax-ns#"
   xmlns:svg="http://www.w3.org/2000/svg"
   xmlns="http://www.w3.org/2000/svg"
   xmlns:sodipodi="http://sodipodi.sourceforge.net/DTD/sodipodi-0.dtd"
   xmlns:inkscape="http://www.inkscape.org/namespaces/inkscape"
   width="50"
   height="50"
   id="svg4379"
   version="1.1"
   inkscape:version="0.48.3.1 r9886"
   sodipodi:docname="busy-indicator.svg">
  <sodipodi:namedview
     id="base"
     pagecolor="#f19be0"
     bordercolor="#666666"
     borderopacity="1.0"
     inkscape:pageopacity="0"
     inkscape:pageshadow="2"
     inkscape:zoom="7"
     inkscape:cx="-44.142857"
     inkscape:cy="22.300224"
     inkscape:current-layer="layer1"
     showgrid="true"
     inkscape:grid-bbox="true"
     inkscape:document-units="px"
     inkscape:window-width="1871"
     inkscape:window-height="1056"
     inkscape:window-x="49"
     inkscape:window-y="24"
     inkscape:window-maximized="1"
     fit-margin-top="0"
     fit-margin-left="0"
     fit-margin-right="0"
     fit-margin-bottom="0">
    <inkscape:grid
       snapvisiblegridlinesonly="true"
       enabled="true"
       visible="true"
       dotted="false"
       empspacing="2"
       id="grid4387"
       type="xygrid" />
  </sodipodi:namedview>
  <defs
     id="defs4381" />
  <metadata
     id="metadata4384">
    <rdf:RDF>
      <cc:Work
         rdf:about="">
        <dc:format>image/svg+xml</dc:format>
        <dc:type
           rdf:resource="http://purl.org/dc/dcmitype/StillImage" />
        <dc:title />
      </cc:Work>
    </rdf:RDF>
  </metadata>
  <g
     transform="translate(0.5,1.5)"
     inkscape:groupmode="layer"
     inkscape:label="Layer 1"
     id="layer1">
    <path
       transform="translate(0.5,-0.5)"
       d="M 48,24 A 24,24 0 1 1 0,24 24,24 0 1 1 48,24 z"
       sodipodi:ry="24"
       sodipodi:rx="24"
       sodipodi:cy="24"
       sodipodi:cx="24"
       id="path4389"
       style="fill:#141414;fill-opacity:1;stroke:#e6e6e6;stroke-width:1;stroke-linecap:round;stroke-linejoin:miter;stroke-miterlimit:0;stroke-opacity:1;stroke-dasharray:none;opacity:0.72839506"
       sodipodi:type="arc" />
    <path
       inkscape:connector-curvature="0"
       id="path4391"
       d="m 24.5,-0.5 0,48"
       style="fill:none;stroke:#e6e6e6;stroke-width:1px;stroke-linecap:round;stroke-linejoin:miter;stroke-opacity:1" />
    <path
       sodipodi:nodetypes="csc"
       inkscape:connector-curvature="0"
       id="path4393"
       d="m 24.5,-0.5 c 0,0 -8,8 -8,24 0,16 8,24 8,24"
       style="fill:none;stroke:#e6e6e6;stroke-width:1px;stroke-linecap:round;stroke-linejoin:miter;stroke-opacity:1" />
    <path
       inkscape:connector-curvature="0"
       id="path4393-1"
       d="m 24.5,-0.5 c 0,0 -16,4 -16,24 0,20 16,24 16,24"
       style="fill:none;stroke:#e6e6e6;stroke-width:1px;stroke-linecap:round;stroke-linejoin:miter;stroke-opacity:1" />
    <path
       inkscape:connector-curvature="0"
       id="path4393-1-4"
       d="m 24.5,-0.5 c 0,0 16,4 16,24 0,20 -16,24 -16,24"
       style="fill:none;stroke:#e6e6e6;stroke-width:1px;stroke-linecap:round;stroke-linejoin:miter;stroke-opacity:1" />
    <path
       sodipodi:nodetypes="csc"
       inkscape:connector-curvature="0"
       id="path4393-2"
       d="m 24.5,-0.5 c 0,0 8,8 8,24 0,16 -8,24 -8,24"
       style="fill:none;stroke:#e6e6e6;stroke-width:1px;stroke-linecap:round;stroke-linejoin:miter;stroke-opacity:1" />
    <path
       inkscape:connector-curvature="0"
       id="path4957"
       d="m 11.499999,4.0333334 c 0,0 4.333334,3.4666666 13.000001,3.4666666 8.666666,0 12.999999,-3.4666666 12.999999,-3.4666666"
       style="fill:none;stroke:#e6e6e6;stroke-width:1px;stroke-linecap:square;stroke-linejoin:miter;stroke-opacity:1" />
    <path
       inkscape:connector-curvature="0"
       id="path4959"
       d="m 0.5,23.5 48,0"
       style="fill:none;stroke:#e6e6e6;stroke-width:1px;stroke-linecap:butt;stroke-linejoin:miter;stroke-opacity:1" />
    <path
       inkscape:connector-curvature="0"
       id="path4961"
       d="m 4.5,11.5 c 0,0 6,4 20,4 14,0 20,-4 20,-4"
       style="fill:none;stroke:#e6e6e6;stroke-width:0.99999994;stroke-linecap:square;stroke-linejoin:miter;stroke-miterlimit:0;stroke-opacity:1;stroke-dasharray:none;marker-mid:none" />
    <path
       inkscape:connector-curvature="0"
       id="path4957-7"
       d="m 10.499998,43.366667 c 0,0 4.666668,-3.733334 14.000002,-3.733334 9.333333,0 14,3.733334 14,3.733334"
       style="fill:none;stroke:#e6e6e6;stroke-width:1px;stroke-linecap:butt;stroke-linejoin:miter;stroke-opacity:1" />
    <path
       inkscape:connector-curvature="0"
       id="path4961-3"
       d="m 4.5,35.318182 c 0,0 6,-3.636364 20,-3.636364 14,0 20,3.636364 20,3.636364"
       style="fill:none;stroke:#e6e6e6;stroke-width:1px;stroke-linecap:square;stroke-linejoin:miter;stroke-opacity:1" />
  </g>
</svg>
