<?xml version="1.0" encoding="UTF-8" standalone="no"?>
<!-- Created with Inkscape (http://www.inkscape.org/) -->
<svg xmlns:dc="http://purl.org/dc/elements/1.1/" xmlns:cc="http://web.resource.org/cc/" xmlns:rdf="http://www.w3.org/1999/02/22-rdf-syntax-ns#" xmlns:svg="http://www.w3.org/2000/svg" xmlns="http://www.w3.org/2000/svg" xmlns:xlink="http://www.w3.org/1999/xlink" xmlns:sodipodi="http://sodipodi.sourceforge.net/DTD/sodipodi-0.dtd" xmlns:inkscape="http://www.inkscape.org/namespaces/inkscape" width="388.323" height="388.33499" id="svg2" sodipodi:version="0.32" inkscape:version="0.45" sodipodi:docbase="/home/barret/Desktop/My Documents/Art/icons" sodipodi:docname="lifesaver.svg" inkscape:output_extension="org.inkscape.output.svg.inkscape" inkscape:export-filename="/home/barret/Desktop/My Documents/Art/icons/lifesaver.png" inkscape:export-xdpi="90" inkscape:export-ydpi="90" version="1.0" sodipodi:modified="true">
  <defs id="defs4">
    <linearGradient id="linearGradient4237">
      <stop style="stop-color:#aa0000;stop-opacity:1;" offset="0" id="stop4239"/>
      <stop id="stop4245" offset="0.60714287" style="stop-color:#f96f6f;stop-opacity:1;"/>
      <stop style="stop-color:#aa0000;stop-opacity:1;" offset="1" id="stop4241"/>
    </linearGradient>
    <linearGradient inkscape:collect="always" id="linearGradient3989">
      <stop style="stop-color:#ffffff;stop-opacity:1;" offset="0" id="stop3991"/>
      <stop style="stop-color:#ffffff;stop-opacity:0;" offset="1" id="stop3993"/>
    </linearGradient>
    <linearGradient id="linearGradient3725">
      <stop style="stop-color:#ac4300;stop-opacity:1;" offset="0" id="stop3727"/>
      <stop style="stop-color:#ac4300;stop-opacity:1;" offset="1" id="stop3729"/>
    </linearGradient>
    <linearGradient inkscape:collect="always" id="linearGradient3418">
      <stop style="stop-color:#ffffff;stop-opacity:1;" offset="0" id="stop3420"/>
      <stop style="stop-color:#ffffff;stop-opacity:0;" offset="1" id="stop3422"/>
    </linearGradient>
    <linearGradient id="linearGradient3369">
      <stop style="stop-color:#6a8fc6;stop-opacity:1;" offset="0" id="stop3371"/>
      <stop style="stop-color:#97b9ec;stop-opacity:1;" offset="1" id="stop3373"/>
    </linearGradient>
    <linearGradient id="linearGradient5513">
      <stop style="stop-color:#c9c9c9;stop-opacity:1;" offset="0" id="stop5515"/>
      <stop style="stop-color:#002f52;stop-opacity:1" offset="1" id="stop5517"/>
    </linearGradient>
    <linearGradient id="linearGradient5430">
      <stop style="stop-color:#24a2ff;stop-opacity:1;" offset="0" id="stop5432"/>
      <stop style="stop-color:#002f52;stop-opacity:1;" offset="1" id="stop5434"/>
    </linearGradient>
    <linearGradient inkscape:collect="always" id="linearGradient5422">
      <stop style="stop-color:#ffffff;stop-opacity:1;" offset="0" id="stop5424"/>
      <stop style="stop-color:#ffffff;stop-opacity:0;" offset="1" id="stop5426"/>
    </linearGradient>
    <linearGradient inkscape:collect="always" xlink:href="#linearGradient3707" id="linearGradient4568" x1="366.78571" y1="419.86218" x2="366.78571" y2="513.18243" gradientUnits="userSpaceOnUse" gradientTransform="matrix(3.2452851,0,0,3.2452851,-825.17664,-1032.4292)"/>
    <linearGradient id="linearGradient7578">
      <stop style="stop-color:#fef9e5;stop-opacity:1;" offset="0" id="stop7580"/>
      <stop id="stop3370" offset="0.17857143" style="stop-color:#ffffff;stop-opacity:1;"/>
      <stop id="stop7586" offset="1" style="stop-color:#fef9e5;stop-opacity:1;"/>
    </linearGradient>
    <linearGradient id="linearGradient7468">
      <stop id="stop7470" offset="0" style="stop-color:#c9c9c9;stop-opacity:1;"/>
      <stop id="stop7472" offset="1" style="stop-color:#ffffff;stop-opacity:1;"/>
    </linearGradient>
    <linearGradient id="linearGradient7238">
      <stop style="stop-color:#ffffff;stop-opacity:1;" offset="0" id="stop7240"/>
      <stop style="stop-color:#ffffff;stop-opacity:1;" offset="1" id="stop7242"/>
    </linearGradient>
    <marker inkscape:stockid="Club" orient="auto" refY="0" refX="0" id="Club" style="overflow:visible">
      <path id="path6545" d="M -1.5971367,-7.0977635 C -3.4863874,-7.0977635 -5.0235187,-5.5606321 -5.0235187,-3.6713813 C -5.0235187,-3.0147015 -4.7851656,-2.4444556 -4.4641095,-1.9232271 C -4.5028609,-1.8911157 -4.5437814,-1.8647646 -4.5806531,-1.8299921 C -5.2030765,-2.6849849 -6.1700514,-3.275133 -7.307773,-3.275133 C -9.1970245,-3.2751331 -10.734155,-1.7380016 -10.734155,0.15124914 C -10.734155,2.0404999 -9.1970245,3.5776313 -7.307773,3.5776313 C -6.3143268,3.5776313 -5.439154,3.1355702 -4.8137404,2.4588126 C -4.9384274,2.8137041 -5.0235187,3.1803 -5.0235187,3.5776313 C -5.0235187,5.4668819 -3.4863874,7.0040135 -1.5971367,7.0040135 C 0.29211394,7.0040135 1.8292454,5.4668819 1.8292454,3.5776313 C 1.8292454,2.7842354 1.5136868,2.0838028 1.0600576,1.503155 C 2.4152718,1.7663868 3.7718375,2.2973711 4.7661444,3.8340272 C 4.0279463,3.0958289 3.5540908,1.7534117 3.5540908,-0.058529361 L 2.9247554,-0.10514681 L 3.5074733,-0.12845553 C 3.5074733,-1.9403966 3.9580199,-3.2828138 4.6962183,-4.0210121 C 3.7371277,-2.5387813 2.4390549,-1.9946496 1.1299838,-1.7134486 C 1.5341802,-2.2753578 1.8292454,-2.9268556 1.8292454,-3.6713813 C 1.8292454,-5.5606319 0.29211394,-7.0977635 -1.5971367,-7.0977635 z " style="fill-rule:evenodd;stroke:#000000;stroke-width:0.74587913pt;marker-start:none" transform="scale(0.6,0.6)"/>
    </marker>
    <linearGradient id="linearGradient4497">
      <stop style="stop-color:#003fff;stop-opacity:1;" offset="0" id="stop4499"/>
      <stop style="stop-color:#ffffff;stop-opacity:1;" offset="1" id="stop4501"/>
    </linearGradient>
    <linearGradient id="linearGradient4254">
      <stop style="stop-color:#ff9191;stop-opacity:1;" offset="0" id="stop4256"/>
      <stop style="stop-color:#b55858;stop-opacity:1;" offset="1" id="stop4258"/>
    </linearGradient>
    <linearGradient id="linearGradient3800">
      <stop style="stop-color:#ffffff;stop-opacity:0;" offset="0" id="stop3802"/>
      <stop style="stop-color:#f3caca;stop-opacity:0.18367347;" offset="1" id="stop3804"/>
    </linearGradient>
    <linearGradient id="linearGradient3707">
      <stop id="stop3715" offset="0" style="stop-color:#c9c9c9;stop-opacity:1;"/>
      <stop style="stop-color:#ffffff;stop-opacity:1;" offset="0.80000001" id="stop4120"/>
      <stop style="stop-color:#c9c9c9;stop-opacity:1;" offset="1" id="stop3711"/>
    </linearGradient>
    <linearGradient id="linearGradient3692">
      <stop style="stop-color:#ff9e00;stop-opacity:1;" offset="0" id="stop3694"/>
      <stop id="stop3705" offset="1" style="stop-color:#9c6000;stop-opacity:1;"/>
    </linearGradient>
    <linearGradient inkscape:collect="always" xlink:href="#linearGradient3800" id="linearGradient3806" x1="167.15625" y1="298.17941" x2="167.15625" y2="311.57703" gradientUnits="userSpaceOnUse"/>
    <linearGradient inkscape:collect="always" xlink:href="#linearGradient4254" id="linearGradient4260" x1="148.70325" y1="318.68668" x2="185.48425" y2="318.68668" gradientUnits="userSpaceOnUse"/>
    <linearGradient inkscape:collect="always" xlink:href="#linearGradient4254" id="linearGradient4396" gradientUnits="userSpaceOnUse" x1="148.70325" y1="318.68668" x2="185.48425" y2="318.68668" gradientTransform="matrix(1,0,0,-1,0,1052.3622)"/>
    <linearGradient inkscape:collect="always" xlink:href="#linearGradient4254" id="linearGradient4399" gradientUnits="userSpaceOnUse" gradientTransform="translate(0,-1.7382813e-5)" x1="148.70325" y1="318.68668" x2="185.48425" y2="318.68668"/>
    <linearGradient inkscape:collect="always" xlink:href="#linearGradient4254" id="linearGradient4465" gradientUnits="userSpaceOnUse" x1="148.70325" y1="318.68668" x2="185.48425" y2="318.68668"/>
    <linearGradient inkscape:collect="always" xlink:href="#linearGradient4254" id="linearGradient4481" gradientUnits="userSpaceOnUse" x1="148.70325" y1="318.68668" x2="185.48425" y2="318.68668" gradientTransform="matrix(0.6504406,0,0,0.6504406,239.12347,164.45229)"/>
    <linearGradient inkscape:collect="always" xlink:href="#linearGradient3707" id="linearGradient4495" x1="335.91367" y1="425.20453" x2="359.76996" y2="425.20453" gradientUnits="userSpaceOnUse"/>
    <linearGradient inkscape:collect="always" xlink:href="#linearGradient4497" id="linearGradient4503" x1="335.91718" y1="414.39426" x2="359.75989" y2="414.39426" gradientUnits="userSpaceOnUse"/>
    <linearGradient inkscape:collect="always" xlink:href="#linearGradient4254" id="linearGradient4569" gradientUnits="userSpaceOnUse" gradientTransform="matrix(0.6504406,0,0,0.6504406,239.12347,164.45229)" x1="148.70325" y1="318.68668" x2="185.48425" y2="318.68668"/>
    <linearGradient inkscape:collect="always" xlink:href="#linearGradient4254" id="linearGradient6372" gradientUnits="userSpaceOnUse" gradientTransform="matrix(0.6504406,0,0,0.6504406,239.12347,164.45229)" x1="148.70325" y1="318.68668" x2="185.48425" y2="318.68668"/>
    <linearGradient inkscape:collect="always" xlink:href="#linearGradient3707" id="linearGradient6374" gradientUnits="userSpaceOnUse" x1="335.91367" y1="425.20453" x2="359.76996" y2="425.20453"/>
    <linearGradient inkscape:collect="always" xlink:href="#linearGradient4497" id="linearGradient6376" gradientUnits="userSpaceOnUse" x1="335.91718" y1="414.39426" x2="359.75989" y2="414.39426"/>
    <radialGradient inkscape:collect="always" xlink:href="#linearGradient3707" id="radialGradient6496" cx="83.9375" cy="432.84375" fx="83.9375" fy="432.84375" r="54.375" gradientTransform="matrix(1,0,0,0.6333333,0,158.70938)" gradientUnits="userSpaceOnUse"/>
    <radialGradient inkscape:collect="always" xlink:href="#linearGradient3707" id="radialGradient6516" gradientUnits="userSpaceOnUse" gradientTransform="matrix(1,0,0,0.6333333,0,363.38406)" cx="83.9375" cy="432.84375" fx="83.9375" fy="432.84375" r="54.375"/>
    <radialGradient inkscape:collect="always" xlink:href="#linearGradient3707" id="radialGradient6744" cx="62.86607" cy="404.68576" fx="62.86607" fy="404.68576" r="54.375" gradientTransform="matrix(1,0,0,0.6885057,0,133.89386)" gradientUnits="userSpaceOnUse"/>
    <linearGradient inkscape:collect="always" xlink:href="#linearGradient7238" id="linearGradient7244" x1="83.842659" y1="370.25668" x2="83.842659" y2="413.69333" gradientUnits="userSpaceOnUse"/>
    <radialGradient inkscape:collect="always" xlink:href="#linearGradient3707" id="radialGradient7419" gradientUnits="userSpaceOnUse" gradientTransform="matrix(1,0,0,-0.6885057,0,918.46832)" cx="62.86607" cy="404.68576" fx="62.86607" fy="404.68576" r="54.375"/>
    <radialGradient inkscape:collect="always" xlink:href="#linearGradient3707" id="radialGradient7426" gradientUnits="userSpaceOnUse" gradientTransform="matrix(1,0,0,-0.6885057,0,918.46832)" cx="62.86607" cy="404.68576" fx="62.86607" fy="404.68576" r="54.375"/>
    <radialGradient inkscape:collect="always" xlink:href="#linearGradient3707" id="radialGradient7451" gradientUnits="userSpaceOnUse" gradientTransform="matrix(1,0,0,-0.6885057,0,918.46832)" cx="62.86607" cy="404.68576" fx="62.86607" fy="404.68576" r="54.375"/>
    <linearGradient inkscape:collect="always" xlink:href="#linearGradient7468" id="linearGradient3316" x1="83.571426" y1="410.39789" x2="83.571426" y2="467.28244" gradientUnits="userSpaceOnUse"/>
    <linearGradient inkscape:collect="always" xlink:href="#linearGradient7468" id="linearGradient3962" gradientUnits="userSpaceOnUse" x1="83.571426" y1="424.28101" x2="83.571426" y2="467.28281" gradientTransform="matrix(0.9409924,0,0,0.9409924,4.9529492,20.591807)"/>
    <linearGradient inkscape:collect="always" xlink:href="#linearGradient7468" id="linearGradient3971" gradientUnits="userSpaceOnUse" x1="83.571426" y1="410.39789" x2="83.571426" y2="467.28244" gradientTransform="translate(0,-10)"/>
    <linearGradient inkscape:collect="always" xlink:href="#linearGradient7468" id="linearGradient4159" gradientUnits="userSpaceOnUse" x1="83.571426" y1="410.39789" x2="83.571426" y2="467.28244" gradientTransform="matrix(1,0,0,-1,0,1052.3622)"/>
    <linearGradient inkscape:collect="always" xlink:href="#linearGradient7578" id="linearGradient3573" gradientUnits="userSpaceOnUse" x1="236.3689" y1="432.06247" x2="531.5061" y2="432.06247"/>
    <linearGradient inkscape:collect="always" xlink:href="#linearGradient7468" id="linearGradient3585" gradientUnits="userSpaceOnUse" gradientTransform="matrix(3.5747126,0,0,-3.5717566,83.885056,2094.0958)" x1="83.085045" y1="409.40009" x2="83.085045" y2="467.52371"/>
    <linearGradient inkscape:collect="always" xlink:href="#linearGradient3692" id="linearGradient5447" x1="258.59906" y1="310.91022" x2="258.59906" y2="423.1586" gradientUnits="userSpaceOnUse"/>
    <linearGradient inkscape:collect="always" xlink:href="#linearGradient3692" id="linearGradient5463" gradientUnits="userSpaceOnUse" x1="258.59906" y1="310.91022" x2="258.59906" y2="423.1586" gradientTransform="matrix(1,0,0,-1,0,1052.3622)"/>
    <linearGradient inkscape:collect="always" xlink:href="#linearGradient3707" id="linearGradient5484" x1="247.53693" y1="487.9809" x2="494.29056" y2="487.9809" gradientUnits="userSpaceOnUse"/>
    <linearGradient inkscape:collect="always" xlink:href="#linearGradient7468" id="linearGradient5487" gradientUnits="userSpaceOnUse" x1="372.14285" y1="350.21933" x2="372.14285" y2="628.11237"/>
    <linearGradient inkscape:collect="always" xlink:href="#linearGradient5513" id="linearGradient5496" x1="366.68536" y1="640.21997" x2="366.68536" y2="327.83759" gradientUnits="userSpaceOnUse"/>
    <linearGradient inkscape:collect="always" xlink:href="#linearGradient5422" id="linearGradient5549" gradientUnits="userSpaceOnUse" gradientTransform="translate(10,10)" x1="362.14285" y1="465.79074" x2="362.14285" y2="530.1756"/>
    <linearGradient inkscape:collect="always" xlink:href="#linearGradient7468" id="linearGradient5615" gradientUnits="userSpaceOnUse" x1="366.68536" y1="640.21997" x2="366.68536" y2="327.83759" gradientTransform="matrix(0.9117005,0,0,0.9117005,32.751503,42.73528)"/>
    <linearGradient inkscape:collect="always" xlink:href="#linearGradient3800" id="linearGradient3356" x1="370.22092" y1="476.07016" x2="370.22092" y2="570.3385" gradientUnits="userSpaceOnUse"/>
    <linearGradient inkscape:collect="always" xlink:href="#linearGradient3369" id="linearGradient3379" gradientUnits="userSpaceOnUse" x1="366.42856" y1="638.79077" x2="366.42856" y2="465.47116" gradientTransform="translate(0,-20)"/>
    <linearGradient inkscape:collect="always" xlink:href="#linearGradient3369" id="linearGradient3395" gradientUnits="userSpaceOnUse" gradientTransform="matrix(1,0,0,-1,12,1072.3622)" x1="366.42856" y1="638.79077" x2="366.42856" y2="465.47116"/>
    <linearGradient inkscape:collect="always" xlink:href="#linearGradient3418" id="linearGradient3816" gradientUnits="userSpaceOnUse" gradientTransform="matrix(1.1020003,0,0,1.1020003,-39.833221,-25.291354)" x1="368.21429" y1="476.64789" x2="368.21429" y2="552.09613"/>
    <linearGradient inkscape:collect="always" xlink:href="#linearGradient3369" id="linearGradient3819" gradientUnits="userSpaceOnUse" gradientTransform="matrix(1.1020003,0,0,1.1020003,-39.833221,-25.291354)" x1="366.42856" y1="638.79077" x2="366.42856" y2="465.47116"/>
    <linearGradient inkscape:collect="always" xlink:href="#linearGradient3725" id="linearGradient3823" gradientUnits="userSpaceOnUse" x1="217.38054" y1="401.81985" x2="284.43036" y2="401.81985"/>
    <linearGradient inkscape:collect="always" xlink:href="#linearGradient7468" id="linearGradient3828" gradientUnits="userSpaceOnUse" gradientTransform="matrix(1.1020003,0,0,1.1020003,-39.833221,-25.291354)" x1="366.68536" y1="640.21997" x2="366.68536" y2="327.83759"/>
    <linearGradient inkscape:collect="always" xlink:href="#linearGradient3418" id="linearGradient3968" gradientUnits="userSpaceOnUse" gradientTransform="matrix(1.1020003,0,0,1.1020003,-39.833221,-25.291354)" x1="368.21429" y1="476.64789" x2="368.21429" y2="552.09613"/>
    <linearGradient inkscape:collect="always" xlink:href="#linearGradient3369" id="linearGradient3972" gradientUnits="userSpaceOnUse" gradientTransform="matrix(1.1020003,0,0,1.1020003,-39.833221,-25.291354)" x1="366.42856" y1="638.79077" x2="366.42856" y2="465.47116"/>
    <linearGradient inkscape:collect="always" xlink:href="#linearGradient3725" id="linearGradient3976" gradientUnits="userSpaceOnUse" x1="217.38054" y1="401.81985" x2="284.43036" y2="401.81985"/>
    <linearGradient inkscape:collect="always" xlink:href="#linearGradient7468" id="linearGradient3981" gradientUnits="userSpaceOnUse" gradientTransform="matrix(1.1020003,0,0,1.1020003,-39.833221,-25.291354)" x1="366.68536" y1="640.21997" x2="366.68536" y2="327.83759"/>
    <linearGradient inkscape:collect="always" xlink:href="#linearGradient3989" id="linearGradient3995" x1="366.68536" y1="288.68686" x2="366.68536" y2="500.93582" gradientUnits="userSpaceOnUse"/>
    <linearGradient inkscape:collect="always" xlink:href="#linearGradient3989" id="linearGradient3998" gradientUnits="userSpaceOnUse" x1="366.68536" y1="288.68686" x2="366.68536" y2="500.93582"/>
    <linearGradient inkscape:collect="always" xlink:href="#linearGradient7468" id="linearGradient4019" gradientUnits="userSpaceOnUse" gradientTransform="matrix(1.1020003,0,0,1.1020003,-39.833221,-25.291354)" x1="366.68536" y1="640.21997" x2="366.68536" y2="327.83759"/>
    <linearGradient inkscape:collect="always" xlink:href="#linearGradient3725" id="linearGradient4021" gradientUnits="userSpaceOnUse" x1="217.38054" y1="401.81985" x2="284.43036" y2="401.81985"/>
    <linearGradient inkscape:collect="always" xlink:href="#linearGradient3369" id="linearGradient4023" gradientUnits="userSpaceOnUse" gradientTransform="matrix(1.1020003,0,0,1.1020003,-39.833221,-25.291354)" x1="366.42856" y1="638.79077" x2="366.42856" y2="465.47116"/>
    <linearGradient inkscape:collect="always" xlink:href="#linearGradient3418" id="linearGradient4025" gradientUnits="userSpaceOnUse" gradientTransform="matrix(1.1020003,0,0,1.1020003,-39.833221,-25.291354)" x1="368.21429" y1="476.64789" x2="368.21429" y2="552.09613"/>
    <linearGradient inkscape:collect="always" xlink:href="#linearGradient3418" id="linearGradient4030" gradientUnits="userSpaceOnUse" gradientTransform="matrix(1.1020003,0,0,1.1020003,-39.833221,-25.291354)" x1="368.21429" y1="476.64789" x2="368.21429" y2="552.09613"/>
    <linearGradient inkscape:collect="always" xlink:href="#linearGradient3369" id="linearGradient4033" gradientUnits="userSpaceOnUse" gradientTransform="matrix(1.1020003,0,0,1.1020003,-39.833221,-25.291354)" x1="366.42856" y1="638.79077" x2="366.42856" y2="465.47116"/>
    <linearGradient inkscape:collect="always" xlink:href="#linearGradient3725" id="linearGradient4037" gradientUnits="userSpaceOnUse" x1="217.38054" y1="401.81985" x2="284.43036" y2="401.81985"/>
    <linearGradient inkscape:collect="always" xlink:href="#linearGradient7468" id="linearGradient4042" gradientUnits="userSpaceOnUse" gradientTransform="matrix(1.1020003,0,0,1.1020003,-39.833221,-25.291354)" x1="366.68536" y1="640.21997" x2="366.68536" y2="327.83759"/>
    <linearGradient inkscape:collect="always" xlink:href="#linearGradient7468" id="linearGradient4100" gradientUnits="userSpaceOnUse" gradientTransform="matrix(1.1020003,0,0,1.1020003,-39.833221,-25.291354)" x1="366.68536" y1="640.21997" x2="366.68536" y2="327.83759"/>
    <linearGradient inkscape:collect="always" xlink:href="#linearGradient3725" id="linearGradient4102" gradientUnits="userSpaceOnUse" x1="217.38054" y1="401.81985" x2="284.43036" y2="401.81985"/>
    <linearGradient inkscape:collect="always" xlink:href="#linearGradient3369" id="linearGradient4104" gradientUnits="userSpaceOnUse" gradientTransform="matrix(1.1020003,0,0,1.1020003,-39.833221,-25.291354)" x1="366.42856" y1="638.79077" x2="366.42856" y2="465.47116"/>
    <linearGradient inkscape:collect="always" xlink:href="#linearGradient3418" id="linearGradient4106" gradientUnits="userSpaceOnUse" gradientTransform="matrix(1.1020003,0,0,1.1020003,-39.833221,-25.291354)" x1="368.21429" y1="476.64789" x2="368.21429" y2="552.09613"/>
    <linearGradient inkscape:collect="always" xlink:href="#linearGradient3418" id="linearGradient4111" gradientUnits="userSpaceOnUse" gradientTransform="matrix(1.1020003,0,0,1.1020003,-39.833221,-25.291354)" x1="368.21429" y1="476.64789" x2="368.21429" y2="552.09613"/>
    <linearGradient inkscape:collect="always" xlink:href="#linearGradient3369" id="linearGradient4114" gradientUnits="userSpaceOnUse" gradientTransform="matrix(1.1020003,0,0,1.1020003,-39.833221,-25.291354)" x1="366.42856" y1="638.79077" x2="366.42856" y2="465.47116"/>
    <linearGradient inkscape:collect="always" xlink:href="#linearGradient7468" id="linearGradient4123" gradientUnits="userSpaceOnUse" gradientTransform="matrix(1.1020003,0,0,1.1020003,-39.833221,-25.291354)" x1="366.68536" y1="640.21997" x2="366.68536" y2="327.83759"/>
    <linearGradient inkscape:collect="always" xlink:href="#linearGradient7468" id="linearGradient4136" gradientUnits="userSpaceOnUse" gradientTransform="matrix(1.1020003,0,0,1.1020003,-39.833221,-25.291354)" x1="366.68536" y1="640.21997" x2="366.68536" y2="327.83759"/>
    <linearGradient inkscape:collect="always" xlink:href="#linearGradient3369" id="linearGradient4138" gradientUnits="userSpaceOnUse" gradientTransform="matrix(1.1020003,0,0,1.1020003,-39.833221,-25.291354)" x1="366.42856" y1="638.79077" x2="366.42856" y2="465.47116"/>
    <linearGradient inkscape:collect="always" xlink:href="#linearGradient3418" id="linearGradient4140" gradientUnits="userSpaceOnUse" gradientTransform="matrix(1.1020003,0,0,1.1020003,-39.833221,-25.291354)" x1="368.21429" y1="476.64789" x2="368.21429" y2="552.09613"/>
    <linearGradient inkscape:collect="always" xlink:href="#linearGradient7468" id="linearGradient4741" gradientUnits="userSpaceOnUse" gradientTransform="matrix(1.1020003,0,0,1.1020003,-39.833221,-25.291354)" x1="366.68536" y1="640.21997" x2="366.68536" y2="327.83759"/>
    <linearGradient inkscape:collect="always" xlink:href="#linearGradient3369" id="linearGradient4743" gradientUnits="userSpaceOnUse" gradientTransform="matrix(1.1020003,0,0,1.1020003,-39.833221,-25.291354)" x1="366.42856" y1="638.79077" x2="366.42856" y2="465.47116"/>
    <linearGradient inkscape:collect="always" xlink:href="#linearGradient3418" id="linearGradient4745" gradientUnits="userSpaceOnUse" gradientTransform="matrix(1.1020003,0,0,1.1020003,-39.833221,-25.291354)" x1="368.21429" y1="476.64789" x2="368.21429" y2="552.09613"/>
    <radialGradient inkscape:collect="always" xlink:href="#linearGradient3707" id="radialGradient4118" cx="377.13602" cy="466.2998" fx="377.13602" fy="466.2998" r="133.0625" gradientTransform="matrix(1,0,0,0.9998826,0,5.4755729e-2)" gradientUnits="userSpaceOnUse"/>
    <radialGradient inkscape:collect="always" xlink:href="#linearGradient4237" id="radialGradient4243" cx="377.14545" cy="466.6409" fx="377.14545" fy="466.6409" r="143.16052" gradientTransform="matrix(0.9238795,0.3826834,-0.3826834,0.9238795,207.2842,-108.80634)" gradientUnits="userSpaceOnUse"/>
    <radialGradient inkscape:collect="always" xlink:href="#linearGradient3800" id="radialGradient4410" cx="377.125" cy="466.64001" fx="377.125" fy="466.64001" r="133.1615" gradientTransform="matrix(1,0,0,0.9999646,0,1.649707e-2)" gradientUnits="userSpaceOnUse"/>
    <linearGradient inkscape:collect="always" xlink:href="#linearGradient3800" id="linearGradient4420" x1="243.96349" y1="466.64627" x2="289.01611" y2="465.76889" gradientUnits="userSpaceOnUse" gradientTransform="matrix(0.8141089,0,0,0.8141089,45.366927,86.745409)"/>
    <linearGradient inkscape:collect="always" xlink:href="#linearGradient3800" id="linearGradient4424" gradientUnits="userSpaceOnUse" gradientTransform="matrix(-0.8141089,0,0,0.8141089,708.89934,86.745409)" x1="243.96349" y1="466.64627" x2="289.01611" y2="465.76889"/>
    <linearGradient inkscape:collect="always" xlink:href="#linearGradient3800" id="linearGradient4430" gradientUnits="userSpaceOnUse" gradientTransform="matrix(0,-0.8141089,0.8141089,0,-3.51081,797.66942)" x1="243.96349" y1="466.64627" x2="289.01611" y2="465.76889"/>
    <linearGradient inkscape:collect="always" xlink:href="#linearGradient3800" id="linearGradient4434" gradientUnits="userSpaceOnUse" gradientTransform="matrix(0,0.8141089,0.8141089,0,-3.51081,133.62315)" x1="243.96349" y1="466.64627" x2="289.01611" y2="465.76889"/>
    <radialGradient inkscape:collect="always" xlink:href="#linearGradient3707" id="radialGradient4458" gradientUnits="userSpaceOnUse" gradientTransform="matrix(1,0,0,0.9998826,0,5.4755729e-2)" cx="377.13602" cy="466.2998" fx="377.13602" fy="466.2998" r="133.0625"/>
    <radialGradient inkscape:collect="always" xlink:href="#linearGradient4237" id="radialGradient4460" gradientUnits="userSpaceOnUse" gradientTransform="matrix(0.9238795,0.3826834,-0.3826834,0.9238795,207.2842,-108.80634)" cx="377.14545" cy="466.6409" fx="377.14545" fy="466.6409" r="143.16052"/>
    <linearGradient inkscape:collect="always" xlink:href="#linearGradient3800" id="linearGradient4462" gradientUnits="userSpaceOnUse" gradientTransform="matrix(0.8141089,0,0,0.8141089,45.366927,86.745409)" x1="243.96349" y1="466.64627" x2="289.01611" y2="465.76889"/>
    <linearGradient inkscape:collect="always" xlink:href="#linearGradient3800" id="linearGradient4464" gradientUnits="userSpaceOnUse" gradientTransform="matrix(-0.8141089,0,0,0.8141089,708.89934,86.745409)" x1="243.96349" y1="466.64627" x2="289.01611" y2="465.76889"/>
    <linearGradient inkscape:collect="always" xlink:href="#linearGradient3800" id="linearGradient4466" gradientUnits="userSpaceOnUse" gradientTransform="matrix(0,-0.8141089,0.8141089,0,-3.51081,797.66942)" x1="243.96349" y1="466.64627" x2="289.01611" y2="465.76889"/>
    <linearGradient inkscape:collect="always" xlink:href="#linearGradient3800" id="linearGradient4468" gradientUnits="userSpaceOnUse" gradientTransform="matrix(0,0.8141089,0.8141089,0,-3.51081,133.62315)" x1="243.96349" y1="466.64627" x2="289.01611" y2="465.76889"/>
    <linearGradient inkscape:collect="always" xlink:href="#linearGradient3800" id="linearGradient4471" gradientUnits="userSpaceOnUse" gradientTransform="matrix(0,1.1041279,1.1041279,0,-148.10888,-36.016045)" x1="243.96349" y1="466.64627" x2="289.01611" y2="465.76889"/>
    <linearGradient inkscape:collect="always" xlink:href="#linearGradient3800" id="linearGradient4474" gradientUnits="userSpaceOnUse" gradientTransform="matrix(0,-1.1041279,1.1041279,0,-148.10888,864.59073)" x1="243.96349" y1="466.64627" x2="289.01611" y2="465.76889"/>
    <linearGradient inkscape:collect="always" xlink:href="#linearGradient3800" id="linearGradient4477" gradientUnits="userSpaceOnUse" gradientTransform="matrix(-1.1041279,0,0,1.1041279,818.09097,-99.59356)" x1="243.96349" y1="466.64627" x2="289.01611" y2="465.76889"/>
    <linearGradient inkscape:collect="always" xlink:href="#linearGradient3800" id="linearGradient4480" gradientUnits="userSpaceOnUse" gradientTransform="matrix(1.1041279,0,0,1.1041279,-81.818894,-99.59356)" x1="243.96349" y1="466.64627" x2="289.01611" y2="465.76889"/>
    <radialGradient inkscape:collect="always" xlink:href="#linearGradient4237" id="radialGradient4485" gradientUnits="userSpaceOnUse" gradientTransform="matrix(1.2530033,0.5190109,-0.5190109,1.2530033,137.77995,-364.80886)" cx="377.14545" cy="466.6409" fx="377.14545" fy="466.6409" r="143.16052"/>
    <radialGradient inkscape:collect="always" xlink:href="#linearGradient3707" id="radialGradient4488" gradientUnits="userSpaceOnUse" gradientTransform="matrix(1.356241,0,0,1.3560818,-143.34738,-217.16698)" cx="377.13602" cy="466.2998" fx="377.13602" fy="466.2998" r="133.0625"/>
    <linearGradient inkscape:collect="always" xlink:href="#linearGradient3800" id="linearGradient3230" gradientUnits="userSpaceOnUse" gradientTransform="matrix(0,1.1041279,1.1041279,0,-148.10888,-36.016045)" x1="243.96349" y1="466.64627" x2="289.01611" y2="465.76889"/>
    <linearGradient inkscape:collect="always" xlink:href="#linearGradient3800" id="linearGradient3233" gradientUnits="userSpaceOnUse" gradientTransform="matrix(0,-1.1041279,1.1041279,0,-148.10888,864.59073)" x1="243.96349" y1="466.64627" x2="289.01611" y2="465.76889"/>
    <linearGradient inkscape:collect="always" xlink:href="#linearGradient3800" id="linearGradient3236" gradientUnits="userSpaceOnUse" gradientTransform="matrix(-1.1041279,0,0,1.1041279,818.09097,-99.59356)" x1="243.96349" y1="466.64627" x2="289.01611" y2="465.76889"/>
    <linearGradient inkscape:collect="always" xlink:href="#linearGradient3800" id="linearGradient3239" gradientUnits="userSpaceOnUse" gradientTransform="matrix(1.1041279,0,0,1.1041279,-81.818894,-99.59356)" x1="243.96349" y1="466.64627" x2="289.01611" y2="465.76889"/>
    <radialGradient inkscape:collect="always" xlink:href="#linearGradient4237" id="radialGradient3244" gradientUnits="userSpaceOnUse" gradientTransform="matrix(1.2530033,0.5190109,-0.5190109,1.2530033,137.77995,-364.80886)" cx="377.14545" cy="466.6409" fx="377.14545" fy="466.6409" r="143.16052"/>
    <radialGradient inkscape:collect="always" xlink:href="#linearGradient3707" id="radialGradient3247" gradientUnits="userSpaceOnUse" gradientTransform="matrix(1.356241,0,0,1.3560818,-143.34738,-217.16698)" cx="377.13602" cy="466.2998" fx="377.13602" fy="466.2998" r="133.0625"/>
    <radialGradient inkscape:collect="always" xlink:href="#linearGradient3707" id="radialGradient4252" gradientUnits="userSpaceOnUse" gradientTransform="matrix(1.356241,0,0,1.3560818,-143.34738,-217.16698)" cx="377.13602" cy="466.2998" fx="377.13602" fy="466.2998" r="133.0625"/>
    <radialGradient inkscape:collect="always" xlink:href="#linearGradient4237" id="radialGradient4254" gradientUnits="userSpaceOnUse" gradientTransform="matrix(1.2530033,0.5190109,-0.5190109,1.2530033,137.77995,-364.80886)" cx="377.14545" cy="466.6409" fx="377.14545" fy="466.6409" r="143.16052"/>
    <linearGradient inkscape:collect="always" xlink:href="#linearGradient3800" id="linearGradient4256" gradientUnits="userSpaceOnUse" gradientTransform="matrix(1.1041279,0,0,1.1041279,-81.818894,-99.59356)" x1="243.96349" y1="466.64627" x2="289.01611" y2="465.76889"/>
    <linearGradient inkscape:collect="always" xlink:href="#linearGradient3800" id="linearGradient4258" gradientUnits="userSpaceOnUse" gradientTransform="matrix(-1.1041279,0,0,1.1041279,818.09097,-99.59356)" x1="243.96349" y1="466.64627" x2="289.01611" y2="465.76889"/>
    <linearGradient inkscape:collect="always" xlink:href="#linearGradient3800" id="linearGradient4261" gradientUnits="userSpaceOnUse" gradientTransform="matrix(0,-1.1041279,1.1041279,0,-148.10888,864.59073)" x1="243.96349" y1="466.64627" x2="289.01611" y2="465.76889"/>
    <linearGradient inkscape:collect="always" xlink:href="#linearGradient3800" id="linearGradient4263" gradientUnits="userSpaceOnUse" gradientTransform="matrix(0,1.1041279,1.1041279,0,-148.10888,-36.016045)" x1="243.96349" y1="466.64627" x2="289.01611" y2="465.76889"/>
    <radialGradient inkscape:collect="always" xlink:href="#linearGradient4237" id="radialGradient4280" gradientUnits="userSpaceOnUse" gradientTransform="matrix(1.2530033,0.5190109,-0.5190109,1.2530033,137.77995,-364.80886)" cx="377.14545" cy="466.6409" fx="377.14545" fy="466.6409" r="143.16052"/>
    <radialGradient inkscape:collect="always" xlink:href="#linearGradient3707" id="radialGradient4283" gradientUnits="userSpaceOnUse" gradientTransform="matrix(1.356241,0,0,1.3560818,-143.34738,-217.16698)" cx="377.13602" cy="466.2998" fx="377.13602" fy="466.2998" r="133.0625"/>
    <radialGradient inkscape:collect="always" xlink:href="#linearGradient3800" id="radialGradient4286" cx="367.12823" cy="548.55518" fx="367.12823" fy="548.55518" r="61.158607" gradientTransform="matrix(1,0,0,0.7630759,0,129.96597)" gradientUnits="userSpaceOnUse"/>
    <radialGradient inkscape:collect="always" xlink:href="#linearGradient3800" id="radialGradient4288" cx="502.05545" cy="415.64359" fx="502.05545" fy="415.64359" r="46.668659" gradientTransform="matrix(1,0,0,1.3104857,0,-129.05139)" gradientUnits="userSpaceOnUse"/>
    <radialGradient inkscape:collect="always" xlink:href="#linearGradient3800" id="radialGradient4290" cx="367.12823" cy="280.01947" fx="367.12823" fy="280.01947" r="61.158607" gradientTransform="matrix(1,0,0,0.7630758,0,66.343386)" gradientUnits="userSpaceOnUse"/>
    <radialGradient inkscape:collect="always" xlink:href="#linearGradient3800" id="radialGradient4292" cx="234.21664" cy="415.64359" fx="234.21664" fy="415.64359" r="46.668659" gradientTransform="matrix(1,0,0,1.3104857,0,-129.05139)" gradientUnits="userSpaceOnUse"/>
    <radialGradient inkscape:collect="always" xlink:href="#linearGradient3800" id="radialGradient4299" gradientUnits="userSpaceOnUse" gradientTransform="matrix(4.5671548,0,0,4.590598,-1332.3407,-1489.0144)" cx="373.50235" cy="414.60867" fx="373.50235" fy="414.60867" r="46.668659"/>
  </defs>
  <sodipodi:namedview id="base" pagecolor="#ffffff" bordercolor="#666666" borderopacity="1.0" gridtolerance="10000" guidetolerance="10" objecttolerance="10" inkscape:pageopacity="0.0" inkscape:pageshadow="2" inkscape:zoom="0.49497475" inkscape:cx="316.31297" inkscape:cy="298.03773" inkscape:document-units="px" inkscape:current-layer="layer2" inkscape:window-width="1600" inkscape:window-height="1101" inkscape:window-x="0" inkscape:window-y="24" showguides="true" inkscape:guide-bbox="true"/>
  <metadata id="metadata7">
    <rdf:RDF>
      <cc:Work rdf:about="">
        <dc:format>image/svg+xml</dc:format>
        <dc:type rdf:resource="http://purl.org/dc/dcmitype/StillImage"/>
      </cc:Work>
    </rdf:RDF>
  </metadata>
  <g inkscape:label="Layer 1" inkscape:groupmode="layer" id="layer1" style="display:inline" transform="translate(-173.9635,-221.48042)"/>
  <g inkscape:groupmode="layer" id="layer2" inkscape:label="layer2" style="display:inline" transform="translate(-173.9635,-221.48042)">
    <g id="g4304">
      <path sodipodi:nodetypes="csssssssccsssssssc" id="path4249" d="M 226.96944,274.49324 C 188.17918,313.28353 199.95089,364.76763 199.95088,415.63505 C 199.95092,466.50252 188.17915,517.98657 226.96942,556.77682 C 265.75967,595.56715 317.25064,583.80227 368.12498,583.80916 C 418.99936,583.81605 470.49033,595.59465 509.28059,556.80437 C 548.07082,518.01418 536.29915,466.51627 536.29908,415.63503 C 536.29908,364.75374 548.07086,313.25598 509.28052,274.46568 C 470.49028,235.67546 418.99929,247.45408 368.12497,247.46096 C 317.25062,247.46786 265.75964,235.703 226.96944,274.49324 z M 230.13627,277.66012 C 268.05802,239.73835 318.40669,251.93049 368.13869,251.91674 C 417.8708,251.90297 468.21944,239.68328 506.14127,277.60503 C 544.06307,315.52679 531.85712,365.88921 531.85708,415.63506 C 531.85709,465.38092 544.063,515.74333 506.14129,553.66509 C 468.2195,591.58697 417.86394,579.374 368.12505,579.36715 C 318.38603,579.36026 268.03056,591.55936 230.10871,553.63753 C 192.18696,515.71577 204.39976,465.37403 204.40671,415.64879 C 204.41358,365.92367 192.21449,315.58184 230.13627,277.66012 z " style="color:#000000;fill:#9b8942;fill-opacity:1;fill-rule:nonzero;stroke:#9b8942;stroke-width:4;stroke-linecap:round;stroke-linejoin:miter;marker:none;marker-start:none;marker-mid:none;marker-end:none;stroke-miterlimit:4;stroke-dasharray:8,4;stroke-dashoffset:0;stroke-opacity:1;visibility:visible;display:inline;overflow:visible;enable-background:accumulate"/>
      <path id="path6932" d="M 368.13995,234.73002 C 268.526,234.73002 187.67515,315.53852 187.67513,415.15246 C 187.67513,514.7664 268.526,595.61731 368.13995,595.61727 C 467.7539,595.61727 548.60478,514.76642 548.60477,415.15246 C 548.60477,315.53851 467.75389,234.73001 368.13995,234.73002 z M 368.13995,328.52256 C 415.96218,328.52258 454.76985,367.33022 454.76985,415.15246 C 454.76983,462.97468 415.96219,501.82473 368.13995,501.82473 C 320.3177,501.82476 281.51006,462.97469 281.51006,415.15246 C 281.51005,367.33019 320.31772,328.52256 368.13995,328.52256 z " style="color:#000000;fill:url(#radialGradient4283);fill-opacity:1;fill-rule:nonzero;stroke:none;stroke-width:10;stroke-linecap:round;stroke-linejoin:miter;marker:none;marker-start:none;marker-mid:none;marker-end:none;stroke-miterlimit:4;stroke-dasharray:none;stroke-dashoffset:50;stroke-opacity:0;visibility:visible;display:inline;overflow:visible;enable-background:accumulate"/>
      <path d="M 405.69816,487.28664 C 403.18518,486.30006 400.38797,486.32393 397.89219,487.35322 C 395.65195,488.27196 393.37518,489.07025 391.09288,489.76958 C 388.71748,490.49745 386.28589,491.11078 383.82335,491.61403 C 381.36673,492.11603 378.92775,492.48111 376.42501,492.74513 C 373.92945,493.00843 371.36939,493.16717 368.84095,493.18649 C 366.30819,493.20587 363.82452,493.1159 361.28215,492.88402 C 358.70338,492.64883 356.12245,492.26928 353.62788,491.78776 C 351.11221,491.30211 348.60821,490.68965 346.05575,489.9241 C 343.48561,489.15324 340.92398,488.26986 338.48531,487.25973 C 333.15185,485.05116 327.03774,487.58371 324.82813,492.91674 L 288.19386,581.35965 C 285.98529,586.69311 288.51782,592.80722 293.85086,595.01685 C 297.96377,596.72051 301.87965,597.93822 305.43129,599.15363 C 306.94742,599.67271 308.99526,600.54074 311.64054,601.34846 C 315.50758,602.52784 319.08704,603.32594 322.28337,604.10691 C 324.45527,604.63729 327.10487,605.41111 330.25096,606.04009 C 334.00723,606.79201 337.405,607.16728 340.3988,607.60353 C 342.90775,607.96672 345.84004,608.507 349.17569,608.83482 C 352.45672,609.16099 355.39428,609.22472 357.96116,609.36253 C 361.11043,609.52707 364.61468,609.79733 368.4383,609.78953 C 371.39408,609.78725 373.79728,609.52258 375.69758,609.44937 C 375.71099,609.45496 375.72439,609.46052 375.73782,609.46604 C 379.36818,609.32091 383.31459,609.23279 387.56282,608.80141 C 390.54861,608.50156 392.95164,608.019 394.83069,607.75766 C 398.17627,607.28892 401.9237,606.85412 405.95666,606.04922 C 409.36048,605.37117 412.3171,604.51861 414.92072,603.86955 C 417.78471,603.15508 421.06526,602.46801 424.62456,601.38348 C 427.0847,600.63381 428.94353,599.82413 430.3191,599.35806 C 434.12658,598.06796 438.21551,596.75395 442.44795,595.00081 C 445.01663,593.94175 447.07498,591.91067 448.13825,589.34372 C 449.20151,586.77678 449.18223,583.88512 448.11477,581.31992 L 411.53286,493.00336 C 410.44374,490.38534 408.33786,488.32204 405.69816,487.28664 z M 442.4546,236.25568 C 393.00323,215.77227 339.76639,217.33093 293.88107,236.32863 C 288.55985,238.54094 286.03259,244.64228 288.23092,249.96927 L 324.56047,337.75702 C 325.62709,340.3226 327.66413,342.35135 330.23422,343.40708 C 332.80427,344.46277 335.69596,344.45861 338.25803,343.3836 C 338.42002,343.31583 338.36823,343.30553 338.50232,343.24906 C 339.09928,343.00186 339.2167,342.9484 339.35589,342.8955 C 339.40628,342.87297 339.6718,342.7996 339.68065,342.79433 C 341.58436,342.05222 343.54927,341.3741 345.56949,340.7551 C 348.00498,340.00882 350.39024,339.38619 352.79878,338.89398 C 355.20121,338.40301 357.70463,338.00826 360.25402,337.7393 C 362.74983,337.47602 365.25285,337.34084 367.78117,337.32153 C 370.31403,337.30213 372.83786,337.40877 375.3802,337.64065 C 377.98758,337.87848 380.53517,338.20211 383.0109,338.68002 C 385.50765,339.16196 388.06163,339.79202 390.62328,340.56034 C 393.20245,341.3339 395.69813,342.23813 398.13682,343.24827 C 403.47028,345.45684 409.58439,342.92429 411.79401,337.59127 L 448.1116,249.91288 C 450.32017,244.57942 447.78762,238.46531 442.4546,236.25568 z M 541.70614,335.68122 C 539.17381,334.66224 536.34336,334.67417 533.81971,335.71448 L 446.07221,372.06066 C 440.75099,374.27298 438.22373,380.37431 440.42206,385.70133 C 441.3408,387.94162 442.13911,390.21836 442.83841,392.50063 C 443.5847,394.93615 444.20732,397.32139 444.69954,399.72993 C 445.1905,402.13234 445.54502,404.6191 445.81398,407.16851 C 446.07725,409.66428 446.25265,412.18393 446.27199,414.71231 C 446.29137,417.2452 446.18475,419.76903 445.95287,422.31136 C 445.71507,424.91867 445.39143,427.46626 444.9135,429.94207 C 444.43155,432.43886 443.76125,434.97617 442.99296,437.53776 C 442.30633,439.82702 441.49383,442.13118 440.55502,444.44774 C 440.45472,444.67302 440.36817,444.79351 440.11477,445.39678 C 439.04058,447.96056 439.03961,450.83358 440.09802,453.40392 C 441.15643,455.97424 443.18706,458.03023 445.7551,459.0942 L 533.87612,495.59512 C 539.20957,497.80371 545.32368,495.27116 547.53331,489.93813 C 549.97849,484.03491 552.05111,478.08853 553.86492,472.14844 C 555.02002,468.36088 555.77832,464.89851 556.53028,461.84418 C 557.11533,459.4653 557.89459,456.68183 558.53298,453.48113 C 559.25023,449.89326 559.64134,446.62925 560.06712,443.74543 C 560.45562,441.09534 560.98332,438.09156 561.31794,434.69377 C 561.67345,431.12564 561.74671,427.84207 561.89043,424.88974 C 561.89601,424.87632 561.90156,424.86292 561.90709,424.8495 C 562.03374,422.15934 562.28946,419.09551 562.28648,415.62546 C 562.28869,412.34676 562.07508,409.47234 561.96347,406.95902 C 561.81689,403.7668 561.69415,400.2381 561.31501,396.46069 C 561.01748,393.46756 560.56271,390.86561 560.25343,388.66687 C 559.77465,385.28731 559.30749,381.58298 558.51164,377.62139 C 557.91627,374.64967 557.21422,372.24937 556.74077,370.28803 C 555.92175,366.89991 555.08884,363.16115 553.88326,359.20468 C 553.13354,356.74407 552.32386,354.8855 551.85785,353.51014 C 550.56775,349.70261 549.25375,345.61372 547.5006,341.38129 C 546.4171,338.77743 544.32744,336.72183 541.70614,335.68122 z M 202.42934,335.6774 C 197.09588,333.46883 190.98176,336.00138 188.77214,341.33439 C 168.28762,390.78839 169.77591,444.03182 188.78819,489.93149 C 189.84725,492.50017 191.87832,494.55851 194.44527,495.62177 C 197.01223,496.685 199.90387,496.66575 202.46908,495.5983 L 290.78564,459.01638 C 293.35121,457.94977 295.37996,455.91272 296.43569,453.34263 C 297.49139,450.77254 297.48722,447.8809 296.41219,445.31882 C 296.39318,445.27333 296.36209,445.19787 296.31792,445.0912 C 295.38263,442.83325 294.57047,440.46037 293.82394,438.02405 C 293.07764,435.58836 292.45502,433.20321 291.96283,430.79474 C 291.45552,428.31236 291.06806,425.80322 290.80815,423.33949 C 290.55391,420.92936 290.42705,418.39011 290.40704,415.77212 C 290.38697,413.1496 290.44575,410.64729 290.66926,408.19663 C 290.89866,405.68112 291.26994,403.10975 291.76553,400.54236 C 292.24747,398.04565 292.9011,395.54862 293.66942,392.98691 C 294.37645,390.62964 295.24242,388.1986 296.22401,385.79528 C 298.40393,380.46835 295.86771,374.38141 290.55035,372.17832 L 202.42934,335.6774 z " style="color:#000000;fill:url(#radialGradient4280);fill-opacity:1;fill-rule:nonzero;stroke:none;stroke-width:15;stroke-linecap:round;stroke-linejoin:round;marker:none;stroke-miterlimit:4;stroke-dashoffset:50;stroke-opacity:1;visibility:visible;display:inline;overflow:visible;enable-background:accumulate" id="path3421"/>
      <path id="path6920" d="M 368.13995,609.77304 L 368.13995,609.81542 C 372.29084,609.81542 376.34445,609.43675 380.43089,609.17968 C 376.33355,609.43806 372.24394,609.77304 368.13995,609.77304 z " style="color:#000000;fill:#cccccc;fill-opacity:1;fill-rule:nonzero;stroke:none;stroke-width:10;stroke-linecap:round;stroke-linejoin:miter;marker:none;marker-start:none;marker-mid:none;marker-end:none;stroke-miterlimit:4;stroke-dashoffset:50;stroke-opacity:0;visibility:visible;display:inline;overflow:visible;enable-background:accumulate"/>
      <path id="path6899" d="M 174.02796,415.61866 C 174.02796,411.51468 174.36294,407.42507 174.62132,403.32773 C 174.36425,407.41416 173.98558,411.46778 173.98558,415.61866 L 174.02796,415.61866 z " style="color:#000000;fill:#cccccc;fill-opacity:1;fill-rule:nonzero;stroke:none;stroke-width:10;stroke-linecap:round;stroke-linejoin:miter;marker:none;marker-start:none;marker-mid:none;marker-end:none;stroke-miterlimit:4;stroke-dashoffset:50;stroke-opacity:0;visibility:visible;display:inline;overflow:visible;enable-background:accumulate"/>
      <path d="M 209.10353,355.08932 C 205.0648,353.41689 200.43492,355.33463 198.76171,359.37303 C 183.24996,396.82169 184.37697,437.13988 198.77387,471.89705 C 199.57582,473.84217 201.11383,475.40082 203.05765,476.20598 C 205.00145,477.0111 207.19113,476.99652 209.13361,476.1882 L 276.01065,448.48682 C 277.95341,447.67913 279.48967,446.13659 280.28912,444.19042 C 281.08854,442.24424 281.08537,440.05456 280.27132,438.11444 C 280.25692,438.07999 280.23338,438.02286 280.19993,437.94208 C 279.49169,436.23227 278.8767,434.43542 278.31139,432.59054 C 277.74626,430.74612 277.27478,428.93999 276.90207,427.1162 C 276.51793,425.23643 276.22452,423.33639 276.0277,421.47076 C 275.83518,419.64571 275.73912,417.72288 275.72397,415.74043 C 275.70877,413.75455 275.75328,411.85969 275.92252,410.00395 C 276.09624,408.09909 276.37739,406.15195 276.75268,404.20782 C 277.11761,402.31719 277.61258,400.42634 278.19438,398.4865 C 278.72976,396.70147 279.38552,394.86059 280.12882,393.0407 C 281.77954,389.00692 279.85901,384.39763 275.8325,382.72934 L 209.10353,355.08932 z M 527.16855,355.08932 C 531.20728,353.41689 535.83716,355.33463 537.51037,359.37303 C 553.02212,396.82169 551.89511,437.13988 537.49822,471.89705 C 536.69626,473.84217 535.15825,475.40082 533.21443,476.20598 C 531.27063,477.0111 529.08095,476.99652 527.13847,476.1882 L 460.26143,448.48682 C 458.31867,447.67913 456.78241,446.13659 455.98296,444.19042 C 455.18354,442.24424 455.18671,440.05456 456.00076,438.11444 C 456.01516,438.07999 456.03871,438.02286 456.07215,437.94208 C 456.78039,436.23227 457.39538,434.43542 457.96069,432.59054 C 458.52582,430.74612 458.9973,428.93999 459.37001,427.1162 C 459.75415,425.23643 460.04756,423.33639 460.24438,421.47076 C 460.4369,419.64571 460.53296,417.72288 460.54811,415.74043 C 460.56332,413.75455 460.5188,411.85969 460.34956,410.00395 C 460.17584,408.09909 459.89469,406.15195 459.5194,404.20782 C 459.15447,402.31719 458.65951,400.42634 458.07771,398.4865 C 457.54232,396.70147 456.88656,394.86059 456.14326,393.0407 C 454.49254,389.00692 456.41307,384.39763 460.43959,382.72934 L 527.16855,355.08932 z M 306.57399,573.66832 C 304.90157,577.70704 306.81931,582.33692 310.8577,584.01013 C 348.30637,599.52188 388.62455,598.39487 423.38172,583.99798 C 425.32684,583.19602 426.88549,581.65801 427.69065,579.71419 C 428.49577,577.77039 428.48119,575.58071 427.67287,573.63824 L 399.9715,506.76119 C 399.1638,504.81843 397.62127,503.28218 395.67509,502.48273 C 393.72891,501.6833 391.53923,501.68648 389.59912,502.50052 C 389.56467,502.51492 389.50753,502.53847 389.42675,502.57191 C 387.71694,503.28015 385.9201,503.89514 384.07522,504.46045 C 382.2308,505.02558 380.42466,505.49707 378.60087,505.86977 C 376.72111,506.25392 374.82107,506.54733 372.95544,506.74414 C 371.13038,506.93666 369.20756,507.03272 367.2251,507.04787 C 365.23922,507.06308 363.34437,507.01857 361.48862,506.84932 C 359.58377,506.6756 357.63663,506.39445 355.6925,506.01916 C 353.80187,505.65423 351.91101,505.15927 349.97118,504.57747 C 348.18615,504.04208 346.34527,503.38632 344.52537,502.64302 C 340.4916,500.9923 335.8823,502.91283 334.21402,506.93935 L 306.57399,573.66832 z M 306.57399,254.90637 C 304.90157,250.86765 306.81931,246.23777 310.8577,244.56456 C 348.30637,229.05281 388.62455,230.17982 423.38172,244.57671 C 425.32684,245.37867 426.88549,246.91667 427.69065,248.86049 C 428.49577,250.8043 428.48119,252.99397 427.67287,254.93645 L 399.9715,321.8135 C 399.1638,323.75626 397.62127,325.29251 395.67509,326.09196 C 393.72891,326.89138 391.53923,326.88821 389.59912,326.07417 C 389.56467,326.05976 389.50753,326.03622 389.42675,326.00277 C 387.71694,325.29453 385.9201,324.67954 384.07522,324.11424 C 382.2308,323.5491 380.42466,323.07762 378.60087,322.70491 C 376.72111,322.32077 374.82107,322.02736 372.95544,321.83054 C 371.13038,321.63802 369.20756,321.54196 367.2251,321.52681 C 365.23922,321.51161 363.34437,321.55612 361.48862,321.72537 C 359.58377,321.89909 357.63663,322.18024 355.6925,322.55552 C 353.80187,322.92046 351.91101,323.41542 349.97118,323.99722 C 348.18615,324.53261 346.34527,325.18837 344.52537,325.93167 C 340.4916,327.58239 335.8823,325.66186 334.21402,321.63534 L 306.57399,254.90637 z " style="color:#000000;fill:url(#radialGradient4299);fill-opacity:1.0;fill-rule:nonzero;stroke:none;stroke-width:15;stroke-linecap:round;stroke-linejoin:round;stroke-miterlimit:4;stroke-dashoffset:50;stroke-opacity:1;marker:none;visibility:visible;display:inline;overflow:visible;enable-background:accumulate;opacity:1" id="path4400"/>
    </g>
  </g>
</svg>