<?xml version="1.0" encoding="UTF-8" standalone="no"?>
<!-- Created with Inkscape (http://www.inkscape.org/) -->

<svg
   xmlns:dc="http://purl.org/dc/elements/1.1/"
   xmlns:cc="http://creativecommons.org/ns#"
   xmlns:rdf="http://www.w3.org/1999/02/22-rdf-syntax-ns#"
   xmlns:svg="http://www.w3.org/2000/svg"
   xmlns="http://www.w3.org/2000/svg"
   xmlns:sodipodi="http://sodipodi.sourceforge.net/DTD/sodipodi-0.dtd"
   xmlns:inkscape="http://www.inkscape.org/namespaces/inkscape"
   width="32"
   height="32"
   id="svg2"
   sodipodi:version="0.32"
   inkscape:version="0.48.0 r9654"
   sodipodi:docname="tag-remove.svg"
   inkscape:output_extension="org.inkscape.output.svg.inkscape"
   sodipodi:modified="true"
   version="1.0"
   inkscape:export-filename="C:\Documents and Settings\Midkiff Aries\Desktop\Ruffled_Map.png"
   inkscape:export-xdpi="43.720001"
   inkscape:export-ydpi="43.720001">
  <sodipodi:namedview
     id="base"
     pagecolor="#ffffff"
     bordercolor="#666666"
     borderopacity="1.0"
     inkscape:pageopacity="0.0"
     inkscape:pageshadow="2"
     inkscape:zoom="4.5041507"
     inkscape:cx="-39.121972"
     inkscape:cy="14.782743"
     inkscape:document-units="px"
     inkscape:current-layer="layer1"
     inkscape:window-width="1920"
     inkscape:window-height="1005"
     inkscape:window-x="0"
     inkscape:window-y="24"
     showgrid="true"
     inkscape:window-maximized="1">
    <inkscape:grid
       snapvisiblegridlinesonly="true"
       enabled="true"
       visible="true"
       dotted="true"
       empspacing="4"
       id="grid3159"
       type="xygrid" />
  </sodipodi:namedview>
  <defs
     id="defs4">
    <inkscape:perspective
       id="perspective44"
       inkscape:persp3d-origin="372.04724 : 350.78739 : 1"
       inkscape:vp_z="744.09448 : 526.18109 : 1"
       inkscape:vp_y="0 : 1000 : 0"
       inkscape:vp_x="0 : 526.18109 : 1"
       sodipodi:type="inkscape:persp3d" />
    <linearGradient
       id="linearGradient12551">
      <stop
         id="stop12553"
         offset="0"
         style="stop-color: rgb(156, 0, 0); stop-opacity: 1;" />
      <stop
         id="stop12555"
         offset="1"
         style="stop-color: rgb(49, 0, 0); stop-opacity: 1;" />
    </linearGradient>
    <linearGradient
       id="linearGradient5541">
      <stop
         id="stop5543"
         offset="0"
         style="stop-color: rgb(254, 255, 229); stop-opacity: 1;" />
      <stop
         style="stop-color: rgb(255, 249, 140); stop-opacity: 1;"
         offset="0.34513274"
         id="stop5551" />
      <stop
         id="stop5545"
         offset="1"
         style="stop-color: rgb(255, 244, 26); stop-opacity: 1;" />
    </linearGradient>
    <linearGradient
       id="linearGradient7210">
      <stop
         id="stop7212"
         offset="0"
         style="stop-color: rgb(41, 221, 27); stop-opacity: 1;" />
      <stop
         id="stop7214"
         offset="1.0000000"
         style="stop-color: rgb(150, 242, 143); stop-opacity: 1;" />
    </linearGradient>
    <linearGradient
       id="linearGradient2764">
      <stop
         id="stop2766"
         offset="0"
         style="stop-color: rgb(55, 146, 179); stop-opacity: 1;" />
      <stop
         id="stop2768"
         offset="1.0000000"
         style="stop-color: rgb(255, 255, 255); stop-opacity: 1;" />
    </linearGradient>
  </defs>
  <metadata
     id="metadata7">
    <rdf:RDF>
      <cc:Work
         rdf:about="">
        <dc:format>image/svg+xml</dc:format>
        <dc:type
           rdf:resource="http://purl.org/dc/dcmitype/StillImage" />
        <cc:license
           rdf:resource="http://creativecommons.org/licenses/publicdomain/" />
        <dc:title></dc:title>
        <dc:date>2005/11/31</dc:date>
        <dc:creator>
          <cc:Agent>
            <dc:title>Ted Balmer</dc:title>
          </cc:Agent>
        </dc:creator>
        <dc:subject>
          <rdf:Bag>
            <rdf:li>map</rdf:li>
          </rdf:Bag>
        </dc:subject>
        <dc:publisher>
          <cc:Agent>
            <dc:title>http://www.marchtwenty.com</dc:title>
          </cc:Agent>
        </dc:publisher>
      </cc:Work>
      <cc:License
         rdf:about="http://creativecommons.org/licenses/publicdomain/">
        <cc:permits
           rdf:resource="http://creativecommons.org/ns#Reproduction" />
        <cc:permits
           rdf:resource="http://creativecommons.org/ns#Distribution" />
        <cc:permits
           rdf:resource="http://creativecommons.org/ns#DerivativeWorks" />
      </cc:License>
    </rdf:RDF>
  </metadata>
  <g
     transform="translate(-0.5075435,-383.98264)"
     id="layer1"
     inkscape:groupmode="layer"
     inkscape:label="Layer 1">
    <g
       id="g3127"
       transform="translate(0.5077195,-636.62966)">
      <path
         sodipodi:type="arc"
         style="fill:#ffffff;fill-opacity:1"
         id="path3764"
         sodipodi:cx="62.5"
         sodipodi:cy="55.5"
         sodipodi:rx="17.5"
         sodipodi:ry="17.5"
         d="M 79.393442,60.067451 C 76.870909,69.397441 67.26254,74.915976 57.932549,72.393442 48.602559,69.870909 43.084024,60.26254 45.606558,50.932549 48.129091,41.602559 57.73746,36.084024 67.067451,38.606558 c 7.682471,2.077096 12.996042,9.076255 12.931982,17.034307"
         transform="matrix(0.18969269,0,0,0.18969269,4.063343,1023.4231)"
         sodipodi:start="0.26405504"
         sodipodi:end="6.2912348"
         sodipodi:open="true" />
      <path
         sodipodi:nodetypes="ssssscss"
         inkscape:connector-curvature="0"
         id="path3773"
         d="m 7.2937571,1039.7785 c -2.7175261,-5.0486 -1.0226707,-11.4543 3.7855579,-14.3077 4.808228,-2.8533 10.909054,-1.0738 13.626577,3.9748 1.725172,3.205 1.725752,7.1245 0.0015,10.3301 -1.055878,1.963 -2.040667,2.7115 -3.707392,3.5865 -1.805241,0.9477 -5.000176,5.2501 -5.000176,5.2501 0,0 -3.221699,-4.2492 -5.000175,-5.2501 -1.4805048,-0.8332 -2.5471689,-1.431 -3.7058919,-3.5837 z"
         style="fill:#717171;fill-opacity:1" />
      <path
         sodipodi:type="arc"
         style="fill:#fdfdfd;fill-opacity:1"
         id="path3776"
         sodipodi:cx="16"
         sodipodi:cy="14"
         sodipodi:rx="3"
         sodipodi:ry="3"
         d="m 19,14 c 0,1.656854 -1.343146,3 -3,3 -1.656854,0 -3,-1.343146 -3,-3 0,-1.656854 1.343146,-3 3,-3 1.656854,0 3,1.343146 3,3 z"
         transform="translate(0,1020.3622)" />
    </g>
    <g
       transform="translate(123.85129,6.92014)"
       id="g3795">
      <path
         sodipodi:type="inkscape:offset"
         inkscape:radius="1.3504794"
         inkscape:original="M -114.34375 380.375 L -117.125 382.96875 L -111.5 391.96875 L -118.5 398.5625 L -115.75 401.1875 L -109.125 395.78125 L -103.34375 405.0625 L -97.84375 401.1875 L -104.875 392.3125 L -95.09375 384.28125 L -99.21875 380.375 L -107.875 388.53125 L -114.34375 380.375 z "
         style="fill:#020202;fill-opacity:1;stroke:none"
         id="path3793"
         d="M -114.46875,379.03125 A 1.3506144,1.3506144 0 0 0 -115.25,379.375 l -2.78125,2.59375 a 1.3506144,1.3506144 0 0 0 -0.25,1.71875 l 5.03125,8.0625 -6.1875,5.84375 a 1.3506144,1.3506144 0 0 0 0,1.9375 l 2.75,2.625 a 1.3506144,1.3506144 0 0 0 1.78125,0.0625 l 5.4375,-4.4375 4.96875,8 a 1.3506144,1.3506144 0 0 0 1.9375,0.375 l 5.5,-3.875 a 1.3506144,1.3506144 0 0 0 0.28125,-1.9375 L -103,392.5 l 8.75,-7.1875 a 1.3506144,1.3506144 0 0 0 0.09375,-2 l -4.125,-3.90625 a 1.3506144,1.3506144 0 0 0 -1.875,0 l -7.5625,7.125 -5.5625,-7 a 1.3506144,1.3506144 0 0 0 -1.1875,-0.5 z" />
      <path
         sodipodi:type="inkscape:offset"
         inkscape:radius="0"
         inkscape:original="M -114.34375 380.375 L -117.125 382.96875 L -111.5 391.96875 L -118.5 398.5625 L -115.75 401.1875 L -109.125 395.78125 L -103.34375 405.0625 L -97.84375 401.1875 L -104.875 392.3125 L -95.09375 384.28125 L -99.21875 380.375 L -107.875 388.53125 L -114.34375 380.375 z "
         style="fill:#4c4c4c;fill-opacity:1;stroke:none"
         id="path3789"
         d="m -114.34375,380.375 -2.78125,2.59375 5.625,9 -7,6.59375 2.75,2.625 6.625,-5.40625 5.78125,9.28125 5.5,-3.875 -7.03125,-8.875 9.78125,-8.03125 -4.125,-3.90625 -8.65625,8.15625 -6.46875,-8.15625 z" />
    </g>
  </g>
</svg>
