<?xml version="1.0" encoding="UTF-8" standalone="no"?>
<!-- Created with Inkscape (http://www.inkscape.org/) -->

<svg
   xmlns:dc="http://purl.org/dc/elements/1.1/"
   xmlns:cc="http://creativecommons.org/ns#"
   xmlns:rdf="http://www.w3.org/1999/02/22-rdf-syntax-ns#"
   xmlns:svg="http://www.w3.org/2000/svg"
   xmlns="http://www.w3.org/2000/svg"
   xmlns:sodipodi="http://sodipodi.sourceforge.net/DTD/sodipodi-0.dtd"
   xmlns:inkscape="http://www.inkscape.org/namespaces/inkscape"
   width="32"
   height="32"
   id="svg2"
   version="1.1"
   inkscape:version="0.48.0 r9654"
   sodipodi:docname="taggable-has-pos.svg">
  <defs
     id="defs4" />
  <sodipodi:namedview
     id="base"
     pagecolor="#ffffff"
     bordercolor="#666666"
     borderopacity="1.0"
     inkscape:pageopacity="0.0"
     inkscape:pageshadow="2"
     inkscape:zoom="15.839192"
     inkscape:cx="21.470777"
     inkscape:cy="13.142338"
     inkscape:document-units="px"
     inkscape:current-layer="layer1"
     showgrid="true"
     inkscape:window-width="1920"
     inkscape:window-height="1005"
     inkscape:window-x="0"
     inkscape:window-y="24"
     inkscape:window-maximized="1">
    <inkscape:grid
       type="xygrid"
       id="grid2985"
       empspacing="4"
       visible="true"
       enabled="true"
       snapvisiblegridlinesonly="true" />
  </sodipodi:namedview>
  <metadata
     id="metadata7">
    <rdf:RDF>
      <cc:Work
         rdf:about="">
        <dc:format>image/svg+xml</dc:format>
        <dc:type
           rdf:resource="http://purl.org/dc/dcmitype/StillImage" />
        <dc:title />
      </cc:Work>
    </rdf:RDF>
  </metadata>
  <g
     inkscape:label="Layer 1"
     inkscape:groupmode="layer"
     id="layer1"
     transform="translate(0,-1020.3622)">
    <path
       sodipodi:type="arc"
       style="fill:#ffffff;fill-opacity:1"
       id="path3764"
       sodipodi:cx="62.5"
       sodipodi:cy="55.5"
       sodipodi:rx="17.5"
       sodipodi:ry="17.5"
       d="M 79.393442,60.067451 C 76.870909,69.397441 67.26254,74.915976 57.932549,72.393442 48.602559,69.870909 43.084024,60.26254 45.606558,50.932549 48.129091,41.602559 57.73746,36.084024 67.067451,38.606558 c 7.682471,2.077096 12.996042,9.076255 12.931982,17.034307"
       transform="matrix(0.18969269,0,0,0.18969269,4.063343,1023.4231)"
       sodipodi:start="0.26405504"
       sodipodi:end="6.2912348"
       sodipodi:open="true" />
    <g
       id="g3778" />
    <g
       transform="translate(1.76e-4,-0.2501)"
       id="g5103">
      <path
         sodipodi:open="true"
         sodipodi:end="6.2912348"
         sodipodi:start="0.26405504"
         transform="matrix(0.18969269,0,0,0.18969269,4.063343,1023.4231)"
         d="M 79.393442,60.067451 C 76.870909,69.397441 67.26254,74.915976 57.932549,72.393442 48.602559,69.870909 43.084024,60.26254 45.606558,50.932549 48.129091,41.602559 57.73746,36.084024 67.067451,38.606558 c 7.682471,2.077096 12.996042,9.076255 12.931982,17.034307"
         sodipodi:ry="17.5"
         sodipodi:rx="17.5"
         sodipodi:cy="55.5"
         sodipodi:cx="62.5"
         id="path3764-6"
         style="fill:#ffffff;fill-opacity:1"
         sodipodi:type="arc" />
      <path
         style="fill:#d45500;fill-opacity:1"
         d="m 7.2937571,1039.7785 c -2.7175225,-5.0486 -1.0226707,-11.4543 3.7855579,-14.3077 4.808228,-2.8533 10.909054,-1.0738 13.626577,3.9748 1.725172,3.205 1.725746,7.1245 0.0015,10.3301 0,0 -2.040667,2.7115 -3.707392,3.5865 -1.805241,0.9477 -5.000176,5.2501 -5.000176,5.2501 0,0 -3.221699,-4.2492 -5.000175,-5.2501 -1.4805048,-0.8332 -3.7058919,-3.5837 -3.7058919,-3.5837 z"
         id="path3773"
         inkscape:connector-curvature="0"
         sodipodi:nodetypes="csscscsc" />
      <path
         transform="translate(0,1020.3622)"
         d="m 19,14 c 0,1.656854 -1.343146,3 -3,3 -1.656854,0 -3,-1.343146 -3,-3 0,-1.656854 1.343146,-3 3,-3 1.656854,0 3,1.343146 3,3 z"
         sodipodi:ry="3"
         sodipodi:rx="3"
         sodipodi:cy="14"
         sodipodi:cx="16"
         id="path3776"
         style="fill:#fffdf6;fill-opacity:1"
         sodipodi:type="arc" />
    </g>
    <path
       style="fill:#00f91c;fill-opacity:1"
       id="path3827"
       d="m 16.898363,1025.5182 c 0.451335,0.4901 0.802294,1.1087 1.152244,1.7107 0.724003,1.2817 1.249726,2.7133 1.688284,4.1808 0.0952,0.3185 0.1814,0.6411 0.2721,0.9618 0.364259,1.3166 0.643396,2.6667 0.989009,3.9907 0.05357,0.1375 0.0686,0.2954 0.120471,0.434 0.0049,0.013 0.01762,0.02 0.02642,0.029 -0.991409,0.5991 -1.975441,1.218 -2.97423,1.7973 -0.06386,0.037 0.11804,-0.1003 0.163859,-0.1674 0.09658,-0.1416 0.173371,-0.3029 0.260057,-0.4544 1.613656,-2.8277 3.402327,-5.4877 5.195145,-8.135 1.521154,-2.24 3.106706,-4.4077 4.693487,-6.5733 -0.119765,-0.362 2.781472,-1.8875 2.901237,-1.5254 l 0,0 c -1.686591,2.165 -3.351581,4.358 -4.914896,6.6672 -0.391083,0.5811 -0.786601,1.1575 -1.173247,1.7433 -1.305295,1.9778 -2.572286,4.0051 -3.691867,6.1583 -0.06786,0.1471 -0.142342,0.2897 -0.203582,0.4414 -0.03571,0.088 -0.01737,0.2296 -0.08651,0.277 -1.008409,0.6923 -2.046458,1.3165 -3.094801,1.907 -0.03609,0.02 -0.03847,-0.087 -0.0509,-0.1349 -0.03946,-0.1505 -0.03856,-0.3149 -0.0845,-0.4631 -0.255005,-1.3596 -0.509541,-2.7221 -0.861993,-4.0482 -0.08779,-0.3166 -0.170107,-0.6357 -0.263369,-0.9499 -0.425547,-1.4334 -0.960175,-2.8213 -1.710101,-4.0328 -0.253504,-0.3877 -0.345599,-0.5476 -0.612302,-0.8914 -0.125297,-0.1614 -0.32909,-0.4204 -0.499841,-0.5226 -0.01828,-0.012 -0.03921,-0.013 -0.05882,-0.019 -0.186934,-0.3518 2.6317,-2.7328 2.818635,-2.3809 z"
       inkscape:connector-curvature="0" />
  </g>
</svg>
