<?xml version="1.0" encoding="UTF-8" standalone="no"?>
<!-- Created with Inkscape (http://www.inkscape.org/) -->

<svg
   xmlns:dc="http://purl.org/dc/elements/1.1/"
   xmlns:cc="http://creativecommons.org/ns#"
   xmlns:rdf="http://www.w3.org/1999/02/22-rdf-syntax-ns#"
   xmlns:svg="http://www.w3.org/2000/svg"
   xmlns="http://www.w3.org/2000/svg"
   xmlns:sodipodi="http://sodipodi.sourceforge.net/DTD/sodipodi-0.dtd"
   xmlns:inkscape="http://www.inkscape.org/namespaces/inkscape"
   width="32"
   height="32"
   id="svg2"
   version="1.1"
   inkscape:version="0.48.3.1 r9886"
   sodipodi:docname="taggable-has-pos.svg">
  <defs
     id="defs4" />
  <sodipodi:namedview
     id="base"
     pagecolor="#ffffff"
     bordercolor="#666666"
     borderopacity="1.0"
     inkscape:pageopacity="0.0"
     inkscape:pageshadow="2"
     inkscape:zoom="15.839192"
     inkscape:cx="21.470777"
     inkscape:cy="13.142338"
     inkscape:document-units="px"
     inkscape:current-layer="layer1"
     showgrid="true"
     inkscape:window-width="1366"
     inkscape:window-height="744"
     inkscape:window-x="0"
     inkscape:window-y="24"
     inkscape:window-maximized="1">
    <inkscape:grid
       type="xygrid"
       id="grid2985"
       empspacing="4"
       visible="true"
       enabled="true"
       snapvisiblegridlinesonly="true" />
  </sodipodi:namedview>
  <metadata
     id="metadata7">
    <rdf:RDF>
      <cc:Work
         rdf:about="">
        <dc:format>image/svg+xml</dc:format>
        <dc:type
           rdf:resource="http://purl.org/dc/dcmitype/StillImage" />
        <dc:title />
      </cc:Work>
    </rdf:RDF>
  </metadata>
  <g
     inkscape:label="Layer 1"
     inkscape:groupmode="layer"
     id="layer1"
     transform="translate(0,-1020.3622)">
    <path
       sodipodi:type="arc"
       style="fill:#ffffff;fill-opacity:1"
       id="path3764"
       sodipodi:cx="62.5"
       sodipodi:cy="55.5"
       sodipodi:rx="17.5"
       sodipodi:ry="17.5"
       d="M 79.393442,60.067451 C 76.870909,69.397441 67.26254,74.915976 57.932549,72.393442 48.602559,69.870909 43.084024,60.26254 45.606558,50.932549 48.129091,41.602559 57.73746,36.084024 67.067451,38.606558 c 7.682471,2.077096 12.996042,9.076255 12.931982,17.034307"
       transform="matrix(0.18969269,0,0,0.18969269,4.063343,1023.4231)"
       sodipodi:start="0.26405504"
       sodipodi:end="6.2912348"
       sodipodi:open="true" />
    <g
       id="g3778" />
    <g
       id="g3782">
      <path
         style="fill:#ffe06a;fill-opacity:1"
         d="m 7.2937571,1039.7785 c -2.7175225,-5.0486 -1.0226707,-11.4543 3.7855579,-14.3077 4.808228,-2.8533 10.909054,-1.0738 13.626577,3.9748 1.725172,3.205 1.725746,7.1245 0.0015,10.3301 0,0 -2.040667,2.7115 -3.707392,3.5865 -1.805241,0.9477 -5.000176,5.2501 -5.000176,5.2501 0,0 -3.221699,-4.2492 -5.000175,-5.2501 -1.4805048,-0.8332 -3.7058919,-3.5837 -3.7058919,-3.5837 z"
         id="path3773"
         inkscape:connector-curvature="0"
         sodipodi:nodetypes="csscscsc" />
      <path
         transform="translate(0,1020.3622)"
         d="m 19,14 c 0,1.656854 -1.343146,3 -3,3 -1.656854,0 -3,-1.343146 -3,-3 0,-1.656854 1.343146,-3 3,-3 1.656854,0 3,1.343146 3,3 z"
         sodipodi:ry="3"
         sodipodi:rx="3"
         sodipodi:cy="14"
         sodipodi:cx="16"
         id="path3776"
         style="fill:#fffdf6;fill-opacity:1"
         sodipodi:type="arc" />
    </g>
    <path
       style="fill:#00f91c;fill-opacity:1"
       id="path3827"
       d="m 8.8991683,1027.6886 c 0.7289954,0.7917 1.2958637,1.7908 1.8611027,2.7632 1.169408,2.0701 2.018555,4.3824 2.726912,6.7527 0.153771,0.5145 0.292998,1.0356 0.439496,1.5536 0.58835,2.1265 1.039212,4.3072 1.597445,6.4457 0.08653,0.2221 0.110803,0.4771 0.194585,0.7011 0.0079,0.021 0.02846,0.032 0.04268,0.046 -1.601322,0.9677 -3.190728,1.9673 -4.803971,2.9029 -0.10314,0.06 0.190659,-0.1619 0.264665,-0.2703 0.15599,-0.2287 0.280029,-0.4893 0.420044,-0.7339 2.606374,-4.5673 5.495432,-8.8638 8.391188,-13.1397 2.456964,-3.618 5.017946,-7.1193 7.58091,-10.6171 -0.193444,-0.5848 4.492629,-3.0487 4.686073,-2.4639 l 0,0 c -2.724178,3.4969 -5.413467,7.0391 -7.93853,10.7688 -0.631677,0.9386 -1.270516,1.8697 -1.895027,2.8158 -2.10831,3.1945 -4.154751,6.4691 -5.963096,9.9469 -0.109612,0.2376 -0.22991,0.468 -0.328825,0.7129 -0.05768,0.1427 -0.02805,0.3709 -0.139727,0.4475 -1.628781,1.1182 -3.305436,2.1264 -4.998717,3.0802 -0.05829,0.033 -0.06213,-0.1413 -0.08221,-0.218 -0.06374,-0.243 -0.06228,-0.5086 -0.136483,-0.7479 -0.411884,-2.1961 -0.8230092,-4.3968 -1.3922892,-6.5387 C 9.2835986,1041.3851 9.1506371,1040.8697 9,1040.3622 c -0.6873426,-2.3153 -1.5508724,-4.5571 -2.7621511,-6.5138 -0.4094589,-0.6263 -0.5582115,-0.8846 -0.9889892,-1.4398 -0.2023797,-0.2607 -0.5315454,-0.6791 -0.8073417,-0.8441 -0.02952,-0.019 -0.063337,-0.021 -0.095004,-0.031 -0.3019367,-0.5682 4.2507166,-4.414 4.5526532,-3.8456 z"
       inkscape:connector-curvature="0" />
  </g>
</svg>
