<?xml version="1.0" encoding="UTF-8" standalone="no"?>
<!-- Created with Inkscape (http://www.inkscape.org/) -->

<svg
   xmlns:dc="http://purl.org/dc/elements/1.1/"
   xmlns:cc="http://creativecommons.org/ns#"
   xmlns:rdf="http://www.w3.org/1999/02/22-rdf-syntax-ns#"
   xmlns:svg="http://www.w3.org/2000/svg"
   xmlns="http://www.w3.org/2000/svg"
   xmlns:sodipodi="http://sodipodi.sourceforge.net/DTD/sodipodi-0.dtd"
   xmlns:inkscape="http://www.inkscape.org/namespaces/inkscape"
   width="32"
   height="32"
   id="svg2"
   version="1.1"
   inkscape:version="0.48.0 r9654"
   sodipodi:docname="taggable-handle-off.svg">
  <sodipodi:namedview
     id="base"
     pagecolor="#ffffff"
     bordercolor="#666666"
     borderopacity="1.0"
     inkscape:pageopacity="0.0"
     inkscape:pageshadow="2"
     inkscape:zoom="15.839192"
     inkscape:cx="21.470777"
     inkscape:cy="13.142338"
     inkscape:document-units="px"
     inkscape:current-layer="layer1"
     showgrid="true"
     inkscape:window-width="1920"
     inkscape:window-height="1005"
     inkscape:window-x="0"
     inkscape:window-y="24"
     inkscape:window-maximized="1">
    <inkscape:grid
       snapvisiblegridlinesonly="true"
       enabled="true"
       visible="true"
       empspacing="4"
       id="grid2985"
       type="xygrid" />
  </sodipodi:namedview>
  <defs
     id="defs4">
    <filter
       color-interpolation-filters="sRGB"
       inkscape:menu-tooltip="Render in shades of gray by reducing saturation to zero"
       inkscape:menu="Color"
       height="1"
       width="1"
       y="0"
       x="0"
       inkscape:label="Desaturate"
       id="filter2987">
      <feColorMatrix
         values="0"
         type="saturate"
         id="feColorMatrix2989" />
    </filter>
    <filter
       color-interpolation-filters="sRGB"
       inkscape:menu-tooltip="Render in shades of gray by reducing saturation to zero"
       inkscape:menu="Color"
       height="1"
       width="1"
       y="0"
       x="0"
       inkscape:label="Desaturate"
       id="filter2991">
      <feColorMatrix
         values="0"
         type="saturate"
         id="feColorMatrix2993" />
    </filter>
    <filter
       color-interpolation-filters="sRGB"
       inkscape:menu-tooltip="Render in shades of gray by reducing saturation to zero"
       inkscape:menu="Color"
       height="1"
       width="1"
       y="0"
       x="0"
       inkscape:label="Desaturate"
       id="filter2995">
      <feColorMatrix
         values="0"
         type="saturate"
         id="feColorMatrix2997" />
    </filter>
  </defs>
  <metadata
     id="metadata7">
    <rdf:RDF>
      <cc:Work
         rdf:about="">
        <dc:format>image/svg+xml</dc:format>
        <dc:type
           rdf:resource="http://purl.org/dc/dcmitype/StillImage" />
        <dc:title />
      </cc:Work>
    </rdf:RDF>
  </metadata>
  <g
     transform="translate(0,-1020.3622)"
     id="layer1"
     inkscape:groupmode="layer"
     inkscape:label="Layer 1">
    <path
       sodipodi:open="true"
       sodipodi:end="6.2912348"
       sodipodi:start="0.26405504"
       transform="matrix(0.18969269,0,0,0.18969269,4.063343,1023.4231)"
       d="M 79.393442,60.067451 C 76.870909,69.397441 67.26254,74.915976 57.932549,72.393442 48.602559,69.870909 43.084024,60.26254 45.606558,50.932549 48.129091,41.602559 57.73746,36.084024 67.067451,38.606558 c 7.682471,2.077096 12.996042,9.076255 12.931982,17.034307"
       sodipodi:ry="17.5"
       sodipodi:rx="17.5"
       sodipodi:cy="55.5"
       sodipodi:cx="62.5"
       id="path3764"
       style="fill:#ffffff;fill-opacity:1;filter:url(#filter2995)"
       sodipodi:type="arc" />
    <g
       id="g3778" />
    <path
       style="fill:#6a6a6a;fill-opacity:1;filter:url(#filter2991)"
       d="m 7.2937571,1039.7785 c -2.7175225,-5.0486 -1.0226707,-11.4543 3.7855579,-14.3077 4.808228,-2.8533 10.909054,-1.0738 13.626577,3.9748 1.725172,3.205 1.725746,7.1245 0.0015,10.3301 0,0 -2.040667,2.7115 -3.707392,3.5865 -1.805241,0.9477 -5.000176,5.2501 -5.000176,5.2501 0,0 -3.221699,-4.2492 -5.000175,-5.2501 -1.4805048,-0.8332 -3.7058919,-3.5837 -3.7058919,-3.5837 z"
       id="path3773"
       inkscape:connector-curvature="0"
       sodipodi:nodetypes="csscscsc" />
    <path
       transform="translate(0,1020.3622)"
       d="m 19,14 c 0,1.656854 -1.343146,3 -3,3 -1.656854,0 -3,-1.343146 -3,-3 0,-1.656854 1.343146,-3 3,-3 1.656854,0 3,1.343146 3,3 z"
       sodipodi:ry="3"
       sodipodi:rx="3"
       sodipodi:cy="14"
       sodipodi:cx="16"
       id="path3776"
       style="fill:#fafafa;fill-opacity:1;filter:url(#filter2987)"
       sodipodi:type="arc" />
  </g>
</svg>
