<?xml version="1.0" encoding="UTF-8" standalone="no"?>
<!-- Created with Inkscape (http://www.inkscape.org/) -->

<svg
   xmlns:dc="http://purl.org/dc/elements/1.1/"
   xmlns:cc="http://creativecommons.org/ns#"
   xmlns:rdf="http://www.w3.org/1999/02/22-rdf-syntax-ns#"
   xmlns:svg="http://www.w3.org/2000/svg"
   xmlns="http://www.w3.org/2000/svg"
   xmlns:sodipodi="http://sodipodi.sourceforge.net/DTD/sodipodi-0.dtd"
   xmlns:inkscape="http://www.inkscape.org/namespaces/inkscape"
   inkscape:output_extension="org.inkscape.output.svg.inkscape"
   sodipodi:version="0.32"
   sodipodi:docname="walk.svg"
   inkscape:version="0.48.3.1 r9886"
   version="1.1"
   id="svg2"
   height="20"
   width="20">
  <defs
     id="defs4">
    <inkscape:perspective
       sodipodi:type="inkscape:persp3d"
       inkscape:vp_x="0 : 526.18109 : 1"
       inkscape:vp_y="0 : 1000 : 0"
       inkscape:vp_z="744.09448 : 526.18109 : 1"
       inkscape:persp3d-origin="372.04724 : 350.78739 : 1"
       id="perspective10" />
    <inkscape:perspective
       id="perspective2824"
       inkscape:persp3d-origin="0.5 : 0.33333333 : 1"
       inkscape:vp_z="1 : 0.5 : 1"
       inkscape:vp_y="0 : 1000 : 0"
       inkscape:vp_x="0 : 0.5 : 1"
       sodipodi:type="inkscape:persp3d" />
    <inkscape:perspective
       id="perspective2906"
       inkscape:persp3d-origin="0.5 : 0.33333333 : 1"
       inkscape:vp_z="1 : 0.5 : 1"
       inkscape:vp_y="0 : 1000 : 0"
       inkscape:vp_x="0 : 0.5 : 1"
       sodipodi:type="inkscape:persp3d" />
    <inkscape:perspective
       id="perspective2935"
       inkscape:persp3d-origin="0.5 : 0.33333333 : 1"
       inkscape:vp_z="1 : 0.5 : 1"
       inkscape:vp_y="0 : 1000 : 0"
       inkscape:vp_x="0 : 0.5 : 1"
       sodipodi:type="inkscape:persp3d" />
    <inkscape:perspective
       id="perspective3036"
       inkscape:persp3d-origin="0.5 : 0.33333333 : 1"
       inkscape:vp_z="1 : 0.5 : 1"
       inkscape:vp_y="0 : 1000 : 0"
       inkscape:vp_x="0 : 0.5 : 1"
       sodipodi:type="inkscape:persp3d" />
    <inkscape:perspective
       id="perspective3050"
       inkscape:persp3d-origin="0.5 : 0.33333333 : 1"
       inkscape:vp_z="1 : 0.5 : 1"
       inkscape:vp_y="0 : 1000 : 0"
       inkscape:vp_x="0 : 0.5 : 1"
       sodipodi:type="inkscape:persp3d" />
    <inkscape:perspective
       id="perspective3072"
       inkscape:persp3d-origin="0.5 : 0.33333333 : 1"
       inkscape:vp_z="1 : 0.5 : 1"
       inkscape:vp_y="0 : 1000 : 0"
       inkscape:vp_x="0 : 0.5 : 1"
       sodipodi:type="inkscape:persp3d" />
    <inkscape:perspective
       id="perspective3152"
       inkscape:persp3d-origin="0.5 : 0.33333333 : 1"
       inkscape:vp_z="1 : 0.5 : 1"
       inkscape:vp_y="0 : 1000 : 0"
       inkscape:vp_x="0 : 0.5 : 1"
       sodipodi:type="inkscape:persp3d" />
    <inkscape:perspective
       id="perspective3227"
       inkscape:persp3d-origin="0.5 : 0.33333333 : 1"
       inkscape:vp_z="1 : 0.5 : 1"
       inkscape:vp_y="0 : 1000 : 0"
       inkscape:vp_x="0 : 0.5 : 1"
       sodipodi:type="inkscape:persp3d" />
    <inkscape:perspective
       id="perspective3342"
       inkscape:persp3d-origin="0.5 : 0.33333333 : 1"
       inkscape:vp_z="1 : 0.5 : 1"
       inkscape:vp_y="0 : 1000 : 0"
       inkscape:vp_x="0 : 0.5 : 1"
       sodipodi:type="inkscape:persp3d" />
    <inkscape:perspective
       id="perspective4135"
       inkscape:persp3d-origin="0.5 : 0.33333333 : 1"
       inkscape:vp_z="1 : 0.5 : 1"
       inkscape:vp_y="0 : 1000 : 0"
       inkscape:vp_x="0 : 0.5 : 1"
       sodipodi:type="inkscape:persp3d" />
  </defs>
  <sodipodi:namedview
     id="base"
     pagecolor="#ffffff"
     bordercolor="#666666"
     borderopacity="1.0"
     inkscape:pageopacity="0.0"
     inkscape:pageshadow="2"
     inkscape:zoom="31.678384"
     inkscape:cx="7.038525"
     inkscape:cy="11.531842"
     inkscape:document-units="px"
     inkscape:current-layer="layer1"
     showgrid="true"
     inkscape:window-width="1871"
     inkscape:window-height="1056"
     inkscape:window-x="49"
     inkscape:window-y="24"
     inkscape:window-maximized="1"
     inkscape:showpageshadow="false"
     showborder="true"
     fit-margin-top="0"
     fit-margin-left="0"
     fit-margin-right="0"
     fit-margin-bottom="0">
    <inkscape:grid
       type="xygrid"
       id="grid3071"
       empspacing="4"
       dotted="true"
       visible="true"
       enabled="true"
       snapvisiblegridlinesonly="true" />
  </sodipodi:namedview>
  <metadata
     id="metadata7">
    <rdf:RDF>
      <cc:Work
         rdf:about="">
        <dc:format>image/svg+xml</dc:format>
        <dc:type
           rdf:resource="http://purl.org/dc/dcmitype/StillImage" />
        <dc:title />
      </cc:Work>
    </rdf:RDF>
  </metadata>
  <g
     inkscape:label="Layer 1"
     inkscape:groupmode="layer"
     id="layer1"
     transform="translate(-226.36531,-519.16399)">
    <g
       id="g3194"
       transform="translate(0.1237101,0)">
      <g
         id="g3191" />
    </g>
    <rect
       rx="1.9571706"
       ry="1.9571706"
       y="519.164"
       x="226.36531"
       height="19.999977"
       width="19.999998"
       id="rect2498"
       style="fill:#e5e5e5;fill-opacity:1;stroke:none" />
    <g
       id="g3486"
       transform="matrix(0.07965652,0,0,0.08831468,226.45402,519.29599)"
       style="fill:#323232;fill-opacity:1">
      <g
         transform="matrix(25.900445,0,0,-25.900445,134.32984,53.145434)"
         id="g8150"
         style="fill:#323232;fill-opacity:1">
        <path
           inkscape:connector-curvature="0"
           id="path8152"
           style="fill:#323232;fill-opacity:1;fill-rule:nonzero;stroke:none"
           d="M 0,0 C 0.326,-0.025 0.611,0.219 0.637,0.543 0.663,0.869 0.42,1.154 0.094,1.18 -0.232,1.205 -0.518,0.963 -0.543,0.637 -0.568,0.311 -0.325,0.025 0,0" />
      </g>
      <g
         transform="matrix(25.900445,0,0,-25.900445,121.35393,59.4179)"
         id="g8154"
         style="fill:#323232;fill-opacity:1">
        <path
           inkscape:connector-curvature="0"
           id="path8156"
           style="fill:#323232;fill-opacity:1;fill-rule:nonzero;stroke:none"
           d="M 0,0 C 0.116,0.08 0.26,0.135 0.415,0.123 0.618,0.105 0.786,-0.02 0.886,-0.174 L 1.484,-1.357 2.298,-1.918 C 2.368,-1.971 2.41,-2.059 2.403,-2.152 2.392,-2.299 2.263,-2.408 2.115,-2.396 2.071,-2.395 2.036,-2.377 1.993,-2.357 l -0.889,0.611 c -0.027,0.023 -0.048,0.049 -0.066,0.08 L 0.813,-1.223 0.547,-2.404 1.597,-3.645 C 1.62,-3.684 1.636,-3.727 1.646,-3.771 L 1.929,-5.27 C 1.928,-5.303 1.933,-5.324 1.931,-5.352 1.913,-5.572 1.72,-5.736 1.499,-5.719 1.317,-5.705 1.181,-5.568 1.138,-5.402 l -0.268,1.404 -0.851,0.934 -0.2,-0.911 c -0.006,-0.043 -0.062,-0.132 -0.08,-0.17 l -0.817,-1.378 c -0.083,-0.127 -0.219,-0.207 -0.376,-0.196 -0.221,0.018 -0.386,0.211 -0.368,0.432 0.005,0.062 0.031,0.127 0.053,0.172 l 0.762,1.277 0.633,2.813 -0.414,-0.336 -0.219,-1.002 c -0.029,-0.127 -0.146,-0.233 -0.285,-0.221 -0.146,0.012 -0.257,0.139 -0.246,0.287 l 0.006,0.035 0.261,1.168 c 0.014,0.053 0.043,0.096 0.083,0.129 L 0,0 z" />
      </g>
    </g>
  </g>
</svg>
